solid OpenSCAD_Model
  facet normal -1 0 0
    outer loop
      vertex 6.4375 13 113.9
      vertex 6.4375 69.6667 57.4082
      vertex 6.4375 103.533 10
    endloop
  endfacet
  facet normal -1 0 0
    outer loop
      vertex 6.4375 69.6667 57.4082
      vertex 6.4375 13 113.9
      vertex 6.4375 13 124.125
    endloop
  endfacet
  facet normal -1 0 0
    outer loop
      vertex 6.4375 69.6667 57.4082
      vertex 6.4375 116.333 10
      vertex 6.4375 103.533 10
    endloop
  endfacet
  facet normal -1 0 0
    outer loop
      vertex 6.4375 69.6667 59.0698
      vertex 6.4375 116.333 10
      vertex 6.4375 69.6667 57.4082
    endloop
  endfacet
  facet normal -1 0 0
    outer loop
      vertex 6.4375 13 138.35
      vertex 6.4375 69.6667 59.0698
      vertex 6.4375 13 128.125
    endloop
  endfacet
  facet normal -1 0 0
    outer loop
      vertex 6.4375 69.6667 59.0698
      vertex 6.4375 13 138.35
      vertex 6.4375 116.333 10
    endloop
  endfacet
  facet normal -0 0 1
    outer loop
      vertex -9.4375 13 148.35
      vertex 6.4375 3 148.35
      vertex 6.4375 13 148.35
    endloop
  endfacet
  facet normal 0 0 1
    outer loop
      vertex 6.4375 3 148.35
      vertex -9.4375 13 148.35
      vertex -9.4375 3 148.35
    endloop
  endfacet
  facet normal 0 0 -1
    outer loop
      vertex -9.4375 3 103.9
      vertex 6.4375 13 103.9
      vertex 6.4375 3 103.9
    endloop
  endfacet
  facet normal -0 0 -1
    outer loop
      vertex 6.4375 13 103.9
      vertex -9.4375 3 103.9
      vertex -9.4375 13 103.9
    endloop
  endfacet
  facet normal -1 0 0
    outer loop
      vertex -9.4375 3 103.9
      vertex -9.4375 13 148.35
      vertex -9.4375 13 103.9
    endloop
  endfacet
  facet normal -1 -0 0
    outer loop
      vertex -9.4375 13 148.35
      vertex -9.4375 3 103.9
      vertex -9.4375 3 148.35
    endloop
  endfacet
  facet normal 0 1 0
    outer loop
      vertex 6.4375 13 103.9
      vertex 6.4375 13 113.9
      vertex 9.4375 13 113.9
    endloop
  endfacet
  facet normal 0 1 0
    outer loop
      vertex 6.4375 13 113.9
      vertex 0.927051 13 112.013
      vertex -0.572949 13 113.103
    endloop
  endfacet
  facet normal 0 1 0
    outer loop
      vertex 6.4375 13 113.9
      vertex 1.5 13 110.25
      vertex 0.927051 13 112.013
    endloop
  endfacet
  facet normal 0 1 0
    outer loop
      vertex 6.4375 13 113.9
      vertex 6.4375 13 103.9
      vertex 1.5 13 110.25
    endloop
  endfacet
  facet normal 0 1 0
    outer loop
      vertex 1.5 13 110.25
      vertex 6.4375 13 103.9
      vertex 0.927051 13 108.487
    endloop
  endfacet
  facet normal 0 1 0
    outer loop
      vertex 0.927051 13 108.487
      vertex 6.4375 13 103.9
      vertex -0.572949 13 107.397
    endloop
  endfacet
  facet normal 0 1 0
    outer loop
      vertex 6.4375 13 103.9
      vertex 9.4375 13 113.9
      vertex 9.4375 13 103.9
    endloop
  endfacet
  facet normal 0 1 0
    outer loop
      vertex 6.4375 13 124.125
      vertex 6.4375 13 128.125
      vertex 9.4375 13 128.125
    endloop
  endfacet
  facet normal 0 1 0
    outer loop
      vertex 6.4375 13 128.125
      vertex 1.5 13 126.125
      vertex 0.927051 13 127.888
    endloop
  endfacet
  facet normal 0 1 0
    outer loop
      vertex 6.4375 13 128.125
      vertex 6.4375 13 124.125
      vertex 1.5 13 126.125
    endloop
  endfacet
  facet normal 0 1 0
    outer loop
      vertex 6.4375 13 124.125
      vertex 9.4375 13 128.125
      vertex 9.4375 13 124.125
    endloop
  endfacet
  facet normal 0 1 0
    outer loop
      vertex 1.5 13 126.125
      vertex 6.4375 13 124.125
      vertex 0.927051 13 124.362
    endloop
  endfacet
  facet normal 0 1 0
    outer loop
      vertex 6.4375 13 124.125
      vertex -0.572949 13 123.272
      vertex 0.927051 13 124.362
    endloop
  endfacet
  facet normal 0 1 0
    outer loop
      vertex -0.572949 13 113.103
      vertex -0.572949 13 123.272
      vertex 6.4375 13 113.9
    endloop
  endfacet
  facet normal 0 1 -0
    outer loop
      vertex 6.4375 13 113.9
      vertex -0.572949 13 123.272
      vertex 6.4375 13 124.125
    endloop
  endfacet
  facet normal 0 1 -0
    outer loop
      vertex 6.4375 13 128.125
      vertex -0.572949 13 128.978
      vertex 6.4375 13 138.35
    endloop
  endfacet
  facet normal 0 1 0
    outer loop
      vertex -0.572949 13 128.978
      vertex 6.4375 13 128.125
      vertex 0.927051 13 127.888
    endloop
  endfacet
  facet normal 0 1 0
    outer loop
      vertex 6.4375 13 138.35
      vertex 6.4375 13 148.35
      vertex 9.4375 13 148.35
    endloop
  endfacet
  facet normal 0 1 0
    outer loop
      vertex 6.4375 13 148.35
      vertex -0.572949 13 144.853
      vertex -9.4375 13 148.35
    endloop
  endfacet
  facet normal 0 1 0
    outer loop
      vertex 6.4375 13 148.35
      vertex 0.927051 13 143.763
      vertex -0.572949 13 144.853
    endloop
  endfacet
  facet normal 0 1 0
    outer loop
      vertex 6.4375 13 148.35
      vertex 1.5 13 142
      vertex 0.927051 13 143.763
    endloop
  endfacet
  facet normal 0 1 0
    outer loop
      vertex 6.4375 13 148.35
      vertex 6.4375 13 138.35
      vertex 1.5 13 142
    endloop
  endfacet
  facet normal 0 1 0
    outer loop
      vertex 0.927051 13 140.237
      vertex 6.4375 13 138.35
      vertex -0.572949 13 139.147
    endloop
  endfacet
  facet normal 0 1 0
    outer loop
      vertex 1.5 13 142
      vertex 6.4375 13 138.35
      vertex 0.927051 13 140.237
    endloop
  endfacet
  facet normal 0 1 0
    outer loop
      vertex 6.4375 13 138.35
      vertex 9.4375 13 148.35
      vertex 9.4375 13 138.35
    endloop
  endfacet
  facet normal 0 1 -0
    outer loop
      vertex -2.42705 13 144.853
      vertex -9.4375 13 148.35
      vertex -0.572949 13 144.853
    endloop
  endfacet
  facet normal 0 1 -0
    outer loop
      vertex -3.92705 13 143.763
      vertex -9.4375 13 148.35
      vertex -2.42705 13 144.853
    endloop
  endfacet
  facet normal 0 1 -0
    outer loop
      vertex -4.5 13 142
      vertex -9.4375 13 148.35
      vertex -3.92705 13 143.763
    endloop
  endfacet
  facet normal 0 1 0
    outer loop
      vertex -3.92705 13 140.237
      vertex -9.4375 13 148.35
      vertex -4.5 13 142
    endloop
  endfacet
  facet normal 0 1 0
    outer loop
      vertex -0.572949 13 128.978
      vertex -0.572949 13 139.147
      vertex 6.4375 13 138.35
    endloop
  endfacet
  facet normal 0 1 0
    outer loop
      vertex -0.572949 13 139.147
      vertex -0.572949 13 128.978
      vertex -2.42705 13 139.147
    endloop
  endfacet
  facet normal 0 1 0
    outer loop
      vertex -2.42705 13 128.978
      vertex -2.42705 13 139.147
      vertex -0.572949 13 128.978
    endloop
  endfacet
  facet normal 0 1 0
    outer loop
      vertex -2.42705 13 139.147
      vertex -2.42705 13 128.978
      vertex -3.92705 13 140.237
    endloop
  endfacet
  facet normal 0 1 0
    outer loop
      vertex -3.92705 13 127.888
      vertex -3.92705 13 140.237
      vertex -2.42705 13 128.978
    endloop
  endfacet
  facet normal 0 1 0
    outer loop
      vertex -3.92705 13 140.237
      vertex -3.92705 13 127.888
      vertex -9.4375 13 148.35
    endloop
  endfacet
  facet normal 0 1 -0
    outer loop
      vertex -4.5 13 126.125
      vertex -9.4375 13 148.35
      vertex -3.92705 13 127.888
    endloop
  endfacet
  facet normal 0 1 0
    outer loop
      vertex -0.572949 13 123.272
      vertex -0.572949 13 113.103
      vertex -2.42705 13 123.272
    endloop
  endfacet
  facet normal 0 1 0
    outer loop
      vertex -2.42705 13 113.103
      vertex -2.42705 13 123.272
      vertex -0.572949 13 113.103
    endloop
  endfacet
  facet normal 0 1 0
    outer loop
      vertex -2.42705 13 123.272
      vertex -2.42705 13 113.103
      vertex -3.92705 13 124.362
    endloop
  endfacet
  facet normal 0 1 0
    outer loop
      vertex -3.92705 13 112.013
      vertex -3.92705 13 124.362
      vertex -2.42705 13 113.103
    endloop
  endfacet
  facet normal 0 1 0
    outer loop
      vertex -9.4375 13 103.9
      vertex -3.92705 13 124.362
      vertex -3.92705 13 112.013
    endloop
  endfacet
  facet normal 0 1 0
    outer loop
      vertex -3.92705 13 124.362
      vertex -9.4375 13 103.9
      vertex -4.5 13 126.125
    endloop
  endfacet
  facet normal 0 1 0
    outer loop
      vertex -9.4375 13 103.9
      vertex -3.92705 13 112.013
      vertex -4.5 13 110.25
    endloop
  endfacet
  facet normal 0 1 0
    outer loop
      vertex -0.572949 13 107.397
      vertex 6.4375 13 103.9
      vertex -2.42705 13 107.397
    endloop
  endfacet
  facet normal 0 1 0
    outer loop
      vertex -4.5 13 126.125
      vertex -9.4375 13 103.9
      vertex -9.4375 13 148.35
    endloop
  endfacet
  facet normal 0 1 0
    outer loop
      vertex -3.92705 13 108.487
      vertex -9.4375 13 103.9
      vertex -4.5 13 110.25
    endloop
  endfacet
  facet normal 0 1 0
    outer loop
      vertex -2.42705 13 107.397
      vertex -9.4375 13 103.9
      vertex -3.92705 13 108.487
    endloop
  endfacet
  facet normal 0 1 0
    outer loop
      vertex -9.4375 13 103.9
      vertex -2.42705 13 107.397
      vertex 6.4375 13 103.9
    endloop
  endfacet
  facet normal 0 -1 0
    outer loop
      vertex -0.572949 3 144.853
      vertex 6.4375 3 148.35
      vertex -9.4375 3 148.35
    endloop
  endfacet
  facet normal 0 -1 0
    outer loop
      vertex -0.572949 3 144.853
      vertex -9.4375 3 148.35
      vertex -2.42705 3 144.853
    endloop
  endfacet
  facet normal 0 -1 0
    outer loop
      vertex -9.4375 3 148.35
      vertex -3.92705 3 143.763
      vertex -2.42705 3 144.853
    endloop
  endfacet
  facet normal 0 -1 0
    outer loop
      vertex -9.4375 3 148.35
      vertex -4.5 3 142
      vertex -3.92705 3 143.763
    endloop
  endfacet
  facet normal 0 -1 0
    outer loop
      vertex -9.4375 3 148.35
      vertex -3.92705 3 140.237
      vertex -4.5 3 142
    endloop
  endfacet
  facet normal 0 -1 0
    outer loop
      vertex -2.42705 3 139.147
      vertex -2.42705 3 128.978
      vertex -0.572949 3 139.147
    endloop
  endfacet
  facet normal 0 -1 0
    outer loop
      vertex -3.92705 3 140.237
      vertex -2.42705 3 128.978
      vertex -2.42705 3 139.147
    endloop
  endfacet
  facet normal 0 -1 0
    outer loop
      vertex -3.92705 3 127.888
      vertex -3.92705 3 140.237
      vertex -9.4375 3 148.35
    endloop
  endfacet
  facet normal 0 -1 0
    outer loop
      vertex -3.92705 3 140.237
      vertex -3.92705 3 127.888
      vertex -2.42705 3 128.978
    endloop
  endfacet
  facet normal 0 -1 0
    outer loop
      vertex -9.4375 3 148.35
      vertex -4.5 3 126.125
      vertex -3.92705 3 127.888
    endloop
  endfacet
  facet normal 0 -1 0
    outer loop
      vertex -2.42705 3 123.272
      vertex -2.42705 3 113.103
      vertex -0.572949 3 123.272
    endloop
  endfacet
  facet normal 0 -1 0
    outer loop
      vertex -3.92705 3 124.362
      vertex -2.42705 3 113.103
      vertex -2.42705 3 123.272
    endloop
  endfacet
  facet normal 0 -1 0
    outer loop
      vertex -9.4375 3 103.9
      vertex -3.92705 3 124.362
      vertex -4.5 3 126.125
    endloop
  endfacet
  facet normal 0 -1 0
    outer loop
      vertex -9.4375 3 103.9
      vertex -4.5 3 126.125
      vertex -9.4375 3 148.35
    endloop
  endfacet
  facet normal 0 -1 0
    outer loop
      vertex -3.92705 3 124.362
      vertex -3.92705 3 112.013
      vertex -2.42705 3 113.103
    endloop
  endfacet
  facet normal 0 -1 -0
    outer loop
      vertex -3.92705 3 124.362
      vertex -9.4375 3 103.9
      vertex -3.92705 3 112.013
    endloop
  endfacet
  facet normal 0 -1 -0
    outer loop
      vertex -2.42705 3 107.397
      vertex -9.4375 3 103.9
      vertex -0.572949 3 107.397
    endloop
  endfacet
  facet normal 0 -1 -0
    outer loop
      vertex -3.92705 3 108.487
      vertex -9.4375 3 103.9
      vertex -2.42705 3 107.397
    endloop
  endfacet
  facet normal 0 -1 -0
    outer loop
      vertex -4.5 3 110.25
      vertex -9.4375 3 103.9
      vertex -3.92705 3 108.487
    endloop
  endfacet
  facet normal 0 -1 0
    outer loop
      vertex -3.92705 3 112.013
      vertex -9.4375 3 103.9
      vertex -4.5 3 110.25
    endloop
  endfacet
  facet normal 0 -1 0
    outer loop
      vertex 0.927051 3 143.763
      vertex 6.4375 3 148.35
      vertex -0.572949 3 144.853
    endloop
  endfacet
  facet normal 0 -1 0
    outer loop
      vertex 1.5 3 142
      vertex 6.4375 3 148.35
      vertex 0.927051 3 143.763
    endloop
  endfacet
  facet normal 0 -1 -0
    outer loop
      vertex 6.4375 3 148.35
      vertex 1.5 3 142
      vertex 9.4375 3 148.35
    endloop
  endfacet
  facet normal 0 -1 0
    outer loop
      vertex 0.927051 3 140.237
      vertex 9.4375 3 148.35
      vertex 1.5 3 142
    endloop
  endfacet
  facet normal 0 -1 0
    outer loop
      vertex -0.572949 3 128.978
      vertex -0.572949 3 139.147
      vertex -2.42705 3 128.978
    endloop
  endfacet
  facet normal 0 -1 0
    outer loop
      vertex -0.572949 3 139.147
      vertex -0.572949 3 128.978
      vertex 0.927051 3 140.237
    endloop
  endfacet
  facet normal 0 -1 0
    outer loop
      vertex 0.927051 3 127.888
      vertex 0.927051 3 140.237
      vertex -0.572949 3 128.978
    endloop
  endfacet
  facet normal 0 -1 0
    outer loop
      vertex 0.927051 3 140.237
      vertex 0.927051 3 127.888
      vertex 9.4375 3 148.35
    endloop
  endfacet
  facet normal 0 -1 0
    outer loop
      vertex 1.5 3 126.125
      vertex 9.4375 3 148.35
      vertex 0.927051 3 127.888
    endloop
  endfacet
  facet normal 0 -1 0
    outer loop
      vertex 9.4375 3 103.9
      vertex 1.5 3 126.125
      vertex 0.927051 3 124.362
    endloop
  endfacet
  facet normal 0 -1 0
    outer loop
      vertex -0.572949 3 113.103
      vertex -0.572949 3 123.272
      vertex -2.42705 3 113.103
    endloop
  endfacet
  facet normal 0 -1 0
    outer loop
      vertex -0.572949 3 123.272
      vertex -0.572949 3 113.103
      vertex 0.927051 3 124.362
    endloop
  endfacet
  facet normal 0 -1 0
    outer loop
      vertex 0.927051 3 112.013
      vertex 0.927051 3 124.362
      vertex -0.572949 3 113.103
    endloop
  endfacet
  facet normal 0 -1 0
    outer loop
      vertex 9.4375 3 103.9
      vertex 0.927051 3 124.362
      vertex 0.927051 3 112.013
    endloop
  endfacet
  facet normal 0 -1 0
    outer loop
      vertex 9.4375 3 103.9
      vertex 0.927051 3 112.013
      vertex 1.5 3 110.25
    endloop
  endfacet
  facet normal 0 -1 0
    outer loop
      vertex 6.4375 3 103.9
      vertex -0.572949 3 107.397
      vertex -9.4375 3 103.9
    endloop
  endfacet
  facet normal 0 -1 0
    outer loop
      vertex 6.4375 3 103.9
      vertex 0.927051 3 108.487
      vertex -0.572949 3 107.397
    endloop
  endfacet
  facet normal 0 -1 0
    outer loop
      vertex 6.4375 3 103.9
      vertex 1.5 3 110.25
      vertex 0.927051 3 108.487
    endloop
  endfacet
  facet normal 0 -1 0
    outer loop
      vertex 9.4375 3 103.9
      vertex 1.5 3 110.25
      vertex 6.4375 3 103.9
    endloop
  endfacet
  facet normal 0 -1 0
    outer loop
      vertex 1.5 3 126.125
      vertex 9.4375 3 103.9
      vertex 9.4375 3 148.35
    endloop
  endfacet
  facet normal -0.587851 0 -0.808969
    outer loop
      vertex -0.572949 3 144.853
      vertex 0.927051 13 143.763
      vertex 0.927051 3 143.763
    endloop
  endfacet
  facet normal -0.587851 0 -0.808969
    outer loop
      vertex 0.927051 13 143.763
      vertex -0.572949 3 144.853
      vertex -0.572949 13 144.853
    endloop
  endfacet
  facet normal -0.951038 0 -0.309073
    outer loop
      vertex 1.5 3 142
      vertex 0.927051 13 143.763
      vertex 1.5 13 142
    endloop
  endfacet
  facet normal -0.951038 -0 -0.309073
    outer loop
      vertex 0.927051 13 143.763
      vertex 1.5 3 142
      vertex 0.927051 3 143.763
    endloop
  endfacet
  facet normal 0 0 -1
    outer loop
      vertex -2.42705 3 144.853
      vertex -0.572949 13 144.853
      vertex -0.572949 3 144.853
    endloop
  endfacet
  facet normal -0 0 -1
    outer loop
      vertex -0.572949 13 144.853
      vertex -2.42705 3 144.853
      vertex -2.42705 13 144.853
    endloop
  endfacet
  facet normal -0.587851 0 0.808969
    outer loop
      vertex -0.572949 13 139.147
      vertex 0.927051 3 140.237
      vertex 0.927051 13 140.237
    endloop
  endfacet
  facet normal -0.587851 0 0.808969
    outer loop
      vertex 0.927051 3 140.237
      vertex -0.572949 13 139.147
      vertex -0.572949 3 139.147
    endloop
  endfacet
  facet normal 0.951038 -0 0.309074
    outer loop
      vertex -4.5 3 142
      vertex -3.92705 13 140.237
      vertex -4.5 13 142
    endloop
  endfacet
  facet normal 0.951038 0 0.309074
    outer loop
      vertex -3.92705 13 140.237
      vertex -4.5 3 142
      vertex -3.92705 3 140.237
    endloop
  endfacet
  facet normal -0 0 1
    outer loop
      vertex -2.42705 13 139.147
      vertex -0.572949 3 139.147
      vertex -0.572949 13 139.147
    endloop
  endfacet
  facet normal 0 0 1
    outer loop
      vertex -0.572949 3 139.147
      vertex -2.42705 13 139.147
      vertex -2.42705 3 139.147
    endloop
  endfacet
  facet normal 0.587851 0 0.808969
    outer loop
      vertex -3.92705 13 140.237
      vertex -2.42705 3 139.147
      vertex -2.42705 13 139.147
    endloop
  endfacet
  facet normal 0.587851 0 0.808969
    outer loop
      vertex -2.42705 3 139.147
      vertex -3.92705 13 140.237
      vertex -3.92705 3 140.237
    endloop
  endfacet
  facet normal -0.951038 0 0.309073
    outer loop
      vertex 0.927051 3 140.237
      vertex 1.5 13 142
      vertex 0.927051 13 140.237
    endloop
  endfacet
  facet normal -0.951038 0 0.309073
    outer loop
      vertex 1.5 13 142
      vertex 0.927051 3 140.237
      vertex 1.5 3 142
    endloop
  endfacet
  facet normal 0.587851 0 -0.808969
    outer loop
      vertex -3.92705 3 143.763
      vertex -2.42705 13 144.853
      vertex -2.42705 3 144.853
    endloop
  endfacet
  facet normal 0.587851 0 -0.808969
    outer loop
      vertex -2.42705 13 144.853
      vertex -3.92705 3 143.763
      vertex -3.92705 13 143.763
    endloop
  endfacet
  facet normal 0.951038 0 -0.309074
    outer loop
      vertex -3.92705 3 143.763
      vertex -4.5 13 142
      vertex -3.92705 13 143.763
    endloop
  endfacet
  facet normal 0.951038 0 -0.309074
    outer loop
      vertex -4.5 13 142
      vertex -3.92705 3 143.763
      vertex -4.5 3 142
    endloop
  endfacet
  facet normal -0.587851 0 -0.808969
    outer loop
      vertex -0.572949 3 128.978
      vertex 0.927051 13 127.888
      vertex 0.927051 3 127.888
    endloop
  endfacet
  facet normal -0.587851 0 -0.808969
    outer loop
      vertex 0.927051 13 127.888
      vertex -0.572949 3 128.978
      vertex -0.572949 13 128.978
    endloop
  endfacet
  facet normal -0.951038 0 -0.309073
    outer loop
      vertex 1.5 3 126.125
      vertex 0.927051 13 127.888
      vertex 1.5 13 126.125
    endloop
  endfacet
  facet normal -0.951038 -0 -0.309073
    outer loop
      vertex 0.927051 13 127.888
      vertex 1.5 3 126.125
      vertex 0.927051 3 127.888
    endloop
  endfacet
  facet normal 0 0 -1
    outer loop
      vertex -2.42705 3 128.978
      vertex -0.572949 13 128.978
      vertex -0.572949 3 128.978
    endloop
  endfacet
  facet normal -0 0 -1
    outer loop
      vertex -0.572949 13 128.978
      vertex -2.42705 3 128.978
      vertex -2.42705 13 128.978
    endloop
  endfacet
  facet normal -0.587851 0 0.808969
    outer loop
      vertex -0.572949 13 123.272
      vertex 0.927051 3 124.362
      vertex 0.927051 13 124.362
    endloop
  endfacet
  facet normal -0.587851 0 0.808969
    outer loop
      vertex 0.927051 3 124.362
      vertex -0.572949 13 123.272
      vertex -0.572949 3 123.272
    endloop
  endfacet
  facet normal 0.587851 0 -0.808969
    outer loop
      vertex -3.92705 3 127.888
      vertex -2.42705 13 128.978
      vertex -2.42705 3 128.978
    endloop
  endfacet
  facet normal 0.587851 0 -0.808969
    outer loop
      vertex -2.42705 13 128.978
      vertex -3.92705 3 127.888
      vertex -3.92705 13 127.888
    endloop
  endfacet
  facet normal 0.587851 0 0.808969
    outer loop
      vertex -3.92705 13 124.362
      vertex -2.42705 3 123.272
      vertex -2.42705 13 123.272
    endloop
  endfacet
  facet normal 0.587851 0 0.808969
    outer loop
      vertex -2.42705 3 123.272
      vertex -3.92705 13 124.362
      vertex -3.92705 3 124.362
    endloop
  endfacet
  facet normal 0.951038 -0 0.309074
    outer loop
      vertex -4.5 3 126.125
      vertex -3.92705 13 124.362
      vertex -4.5 13 126.125
    endloop
  endfacet
  facet normal 0.951038 0 0.309074
    outer loop
      vertex -3.92705 13 124.362
      vertex -4.5 3 126.125
      vertex -3.92705 3 124.362
    endloop
  endfacet
  facet normal -0 0 1
    outer loop
      vertex -2.42705 13 123.272
      vertex -0.572949 3 123.272
      vertex -0.572949 13 123.272
    endloop
  endfacet
  facet normal 0 0 1
    outer loop
      vertex -0.572949 3 123.272
      vertex -2.42705 13 123.272
      vertex -2.42705 3 123.272
    endloop
  endfacet
  facet normal 0.951038 0 -0.309074
    outer loop
      vertex -3.92705 3 127.888
      vertex -4.5 13 126.125
      vertex -3.92705 13 127.888
    endloop
  endfacet
  facet normal 0.951038 0 -0.309074
    outer loop
      vertex -4.5 13 126.125
      vertex -3.92705 3 127.888
      vertex -4.5 3 126.125
    endloop
  endfacet
  facet normal -0.951038 0 0.309073
    outer loop
      vertex 0.927051 3 124.362
      vertex 1.5 13 126.125
      vertex 0.927051 13 124.362
    endloop
  endfacet
  facet normal -0.951038 0 0.309073
    outer loop
      vertex 1.5 13 126.125
      vertex 0.927051 3 124.362
      vertex 1.5 3 126.125
    endloop
  endfacet
  facet normal -0.587851 0 -0.808969
    outer loop
      vertex -0.572949 3 113.103
      vertex 0.927051 13 112.013
      vertex 0.927051 3 112.013
    endloop
  endfacet
  facet normal -0.587851 0 -0.808969
    outer loop
      vertex 0.927051 13 112.013
      vertex -0.572949 3 113.103
      vertex -0.572949 13 113.103
    endloop
  endfacet
  facet normal -0.951038 0 -0.309073
    outer loop
      vertex 1.5 3 110.25
      vertex 0.927051 13 112.013
      vertex 1.5 13 110.25
    endloop
  endfacet
  facet normal -0.951038 -0 -0.309073
    outer loop
      vertex 0.927051 13 112.013
      vertex 1.5 3 110.25
      vertex 0.927051 3 112.013
    endloop
  endfacet
  facet normal 0 0 -1
    outer loop
      vertex -2.42705 3 113.103
      vertex -0.572949 13 113.103
      vertex -0.572949 3 113.103
    endloop
  endfacet
  facet normal -0 0 -1
    outer loop
      vertex -0.572949 13 113.103
      vertex -2.42705 3 113.103
      vertex -2.42705 13 113.103
    endloop
  endfacet
  facet normal -0.587851 0 0.808969
    outer loop
      vertex -0.572949 13 107.397
      vertex 0.927051 3 108.487
      vertex 0.927051 13 108.487
    endloop
  endfacet
  facet normal -0.587851 0 0.808969
    outer loop
      vertex 0.927051 3 108.487
      vertex -0.572949 13 107.397
      vertex -0.572949 3 107.397
    endloop
  endfacet
  facet normal 0.587851 0 -0.808969
    outer loop
      vertex -3.92705 3 112.013
      vertex -2.42705 13 113.103
      vertex -2.42705 3 113.103
    endloop
  endfacet
  facet normal 0.587851 0 -0.808969
    outer loop
      vertex -2.42705 13 113.103
      vertex -3.92705 3 112.013
      vertex -3.92705 13 112.013
    endloop
  endfacet
  facet normal 0.587851 0 0.808969
    outer loop
      vertex -3.92705 13 108.487
      vertex -2.42705 3 107.397
      vertex -2.42705 13 107.397
    endloop
  endfacet
  facet normal 0.587851 0 0.808969
    outer loop
      vertex -2.42705 3 107.397
      vertex -3.92705 13 108.487
      vertex -3.92705 3 108.487
    endloop
  endfacet
  facet normal -0.951038 0 0.309073
    outer loop
      vertex 0.927051 3 108.487
      vertex 1.5 13 110.25
      vertex 0.927051 13 108.487
    endloop
  endfacet
  facet normal -0.951038 0 0.309073
    outer loop
      vertex 1.5 13 110.25
      vertex 0.927051 3 108.487
      vertex 1.5 3 110.25
    endloop
  endfacet
  facet normal 0.951038 -0 0.309074
    outer loop
      vertex -4.5 3 110.25
      vertex -3.92705 13 108.487
      vertex -4.5 13 110.25
    endloop
  endfacet
  facet normal 0.951038 0 0.309074
    outer loop
      vertex -3.92705 13 108.487
      vertex -4.5 3 110.25
      vertex -3.92705 3 108.487
    endloop
  endfacet
  facet normal -0 0 1
    outer loop
      vertex -2.42705 13 107.397
      vertex -0.572949 3 107.397
      vertex -0.572949 13 107.397
    endloop
  endfacet
  facet normal 0 0 1
    outer loop
      vertex -0.572949 3 107.397
      vertex -2.42705 13 107.397
      vertex -2.42705 3 107.397
    endloop
  endfacet
  facet normal 0.951038 0 -0.309074
    outer loop
      vertex -3.92705 3 112.013
      vertex -4.5 13 110.25
      vertex -3.92705 13 112.013
    endloop
  endfacet
  facet normal 0.951038 0 -0.309074
    outer loop
      vertex -4.5 13 110.25
      vertex -3.92705 3 112.013
      vertex -4.5 3 110.25
    endloop
  endfacet
  facet normal -1 0 0
    outer loop
      vertex 6.4375 13 69.45
      vertex 6.4375 50.0196 45.0698
      vertex 6.4375 79.5363 10
    endloop
  endfacet
  facet normal -1 0 0
    outer loop
      vertex 6.4375 50.0196 45.0698
      vertex 6.4375 13 69.45
      vertex 6.4375 13 79.675
    endloop
  endfacet
  facet normal -1 0 0
    outer loop
      vertex 6.4375 50.0196 47.0832
      vertex 6.4375 79.5363 10
      vertex 6.4375 50.0196 45.0698
    endloop
  endfacet
  facet normal -1 0 0
    outer loop
      vertex 6.4375 79.5363 10
      vertex 6.4375 50.0196 47.0832
      vertex 6.4375 95.5363 10
    endloop
  endfacet
  facet normal -1 0 0
    outer loop
      vertex 6.4375 13 93.9
      vertex 6.4375 50.0196 47.0832
      vertex 6.4375 13 83.675
    endloop
  endfacet
  facet normal -1 0 0
    outer loop
      vertex 6.4375 50.0196 47.0832
      vertex 6.4375 13 93.9
      vertex 6.4375 95.5363 10
    endloop
  endfacet
  facet normal -0 0 1
    outer loop
      vertex -9.4375 13 103.9
      vertex 6.4375 3 103.9
      vertex 6.4375 13 103.9
    endloop
  endfacet
  facet normal 0 0 1
    outer loop
      vertex 6.4375 3 103.9
      vertex -9.4375 13 103.9
      vertex -9.4375 3 103.9
    endloop
  endfacet
  facet normal 0 0 -1
    outer loop
      vertex -9.4375 3 59.45
      vertex 6.4375 13 59.45
      vertex 6.4375 3 59.45
    endloop
  endfacet
  facet normal -0 0 -1
    outer loop
      vertex 6.4375 13 59.45
      vertex -9.4375 3 59.45
      vertex -9.4375 13 59.45
    endloop
  endfacet
  facet normal -1 0 0
    outer loop
      vertex -9.4375 3 59.45
      vertex -9.4375 13 103.9
      vertex -9.4375 13 59.45
    endloop
  endfacet
  facet normal -1 -0 0
    outer loop
      vertex -9.4375 13 103.9
      vertex -9.4375 3 59.45
      vertex -9.4375 3 103.9
    endloop
  endfacet
  facet normal 0 1 0
    outer loop
      vertex 6.4375 13 59.45
      vertex 6.4375 13 69.45
      vertex 9.4375 13 69.45
    endloop
  endfacet
  facet normal 0 1 0
    outer loop
      vertex 6.4375 13 69.45
      vertex 0.927051 13 67.5634
      vertex -0.572949 13 68.6532
    endloop
  endfacet
  facet normal 0 1 0
    outer loop
      vertex 6.4375 13 69.45
      vertex 1.5 13 65.8
      vertex 0.927051 13 67.5634
    endloop
  endfacet
  facet normal 0 1 0
    outer loop
      vertex 6.4375 13 69.45
      vertex 6.4375 13 59.45
      vertex 1.5 13 65.8
    endloop
  endfacet
  facet normal 0 1 0
    outer loop
      vertex 1.5 13 65.8
      vertex 6.4375 13 59.45
      vertex 0.927051 13 64.0366
    endloop
  endfacet
  facet normal 0 1 0
    outer loop
      vertex 0.927051 13 64.0366
      vertex 6.4375 13 59.45
      vertex -0.572949 13 62.9468
    endloop
  endfacet
  facet normal 0 1 0
    outer loop
      vertex 6.4375 13 59.45
      vertex 9.4375 13 69.45
      vertex 9.4375 13 59.45
    endloop
  endfacet
  facet normal 0 1 0
    outer loop
      vertex 6.4375 13 79.675
      vertex 6.4375 13 83.675
      vertex 9.4375 13 83.675
    endloop
  endfacet
  facet normal 0 1 0
    outer loop
      vertex 6.4375 13 83.675
      vertex 1.5 13 81.675
      vertex 0.927051 13 83.4384
    endloop
  endfacet
  facet normal 0 1 0
    outer loop
      vertex 6.4375 13 83.675
      vertex 6.4375 13 79.675
      vertex 1.5 13 81.675
    endloop
  endfacet
  facet normal 0 1 0
    outer loop
      vertex 6.4375 13 79.675
      vertex 9.4375 13 83.675
      vertex 9.4375 13 79.675
    endloop
  endfacet
  facet normal 0 1 0
    outer loop
      vertex 1.5 13 81.675
      vertex 6.4375 13 79.675
      vertex 0.927051 13 79.9116
    endloop
  endfacet
  facet normal 0 1 0
    outer loop
      vertex 6.4375 13 79.675
      vertex -0.572949 13 78.8218
      vertex 0.927051 13 79.9116
    endloop
  endfacet
  facet normal 0 1 0
    outer loop
      vertex -0.572949 13 68.6532
      vertex -0.572949 13 78.8218
      vertex 6.4375 13 69.45
    endloop
  endfacet
  facet normal 0 1 -0
    outer loop
      vertex 6.4375 13 69.45
      vertex -0.572949 13 78.8218
      vertex 6.4375 13 79.675
    endloop
  endfacet
  facet normal 0 1 -0
    outer loop
      vertex 6.4375 13 83.675
      vertex -0.572949 13 84.5282
      vertex 6.4375 13 93.9
    endloop
  endfacet
  facet normal 0 1 0
    outer loop
      vertex -0.572949 13 84.5282
      vertex 6.4375 13 83.675
      vertex 0.927051 13 83.4384
    endloop
  endfacet
  facet normal 0 1 0
    outer loop
      vertex 6.4375 13 93.9
      vertex 6.4375 13 103.9
      vertex 9.4375 13 103.9
    endloop
  endfacet
  facet normal 0 1 0
    outer loop
      vertex 6.4375 13 103.9
      vertex -0.572949 13 100.403
      vertex -9.4375 13 103.9
    endloop
  endfacet
  facet normal 0 1 0
    outer loop
      vertex 6.4375 13 103.9
      vertex 0.927051 13 99.3134
      vertex -0.572949 13 100.403
    endloop
  endfacet
  facet normal 0 1 0
    outer loop
      vertex 6.4375 13 103.9
      vertex 1.5 13 97.55
      vertex 0.927051 13 99.3134
    endloop
  endfacet
  facet normal 0 1 0
    outer loop
      vertex 6.4375 13 103.9
      vertex 6.4375 13 93.9
      vertex 1.5 13 97.55
    endloop
  endfacet
  facet normal 0 1 0
    outer loop
      vertex 0.927051 13 95.7866
      vertex 6.4375 13 93.9
      vertex -0.572949 13 94.6968
    endloop
  endfacet
  facet normal 0 1 0
    outer loop
      vertex 1.5 13 97.55
      vertex 6.4375 13 93.9
      vertex 0.927051 13 95.7866
    endloop
  endfacet
  facet normal 0 1 0
    outer loop
      vertex 6.4375 13 93.9
      vertex 9.4375 13 103.9
      vertex 9.4375 13 93.9
    endloop
  endfacet
  facet normal 0 1 -0
    outer loop
      vertex -2.42705 13 100.403
      vertex -9.4375 13 103.9
      vertex -0.572949 13 100.403
    endloop
  endfacet
  facet normal 0 1 -0
    outer loop
      vertex -3.92705 13 99.3134
      vertex -9.4375 13 103.9
      vertex -2.42705 13 100.403
    endloop
  endfacet
  facet normal 0 1 -0
    outer loop
      vertex -4.5 13 97.55
      vertex -9.4375 13 103.9
      vertex -3.92705 13 99.3134
    endloop
  endfacet
  facet normal 0 1 0
    outer loop
      vertex -3.92705 13 95.7866
      vertex -9.4375 13 103.9
      vertex -4.5 13 97.55
    endloop
  endfacet
  facet normal 0 1 0
    outer loop
      vertex -0.572949 13 84.5282
      vertex -0.572949 13 94.6968
      vertex 6.4375 13 93.9
    endloop
  endfacet
  facet normal 0 1 0
    outer loop
      vertex -0.572949 13 94.6968
      vertex -0.572949 13 84.5282
      vertex -2.42705 13 94.6968
    endloop
  endfacet
  facet normal 0 1 0
    outer loop
      vertex -2.42705 13 84.5282
      vertex -2.42705 13 94.6968
      vertex -0.572949 13 84.5282
    endloop
  endfacet
  facet normal 0 1 0
    outer loop
      vertex -2.42705 13 94.6968
      vertex -2.42705 13 84.5282
      vertex -3.92705 13 95.7866
    endloop
  endfacet
  facet normal 0 1 0
    outer loop
      vertex -3.92705 13 83.4384
      vertex -3.92705 13 95.7866
      vertex -2.42705 13 84.5282
    endloop
  endfacet
  facet normal 0 1 0
    outer loop
      vertex -3.92705 13 95.7866
      vertex -3.92705 13 83.4384
      vertex -9.4375 13 103.9
    endloop
  endfacet
  facet normal 0 1 -0
    outer loop
      vertex -4.5 13 81.675
      vertex -9.4375 13 103.9
      vertex -3.92705 13 83.4384
    endloop
  endfacet
  facet normal 0 1 0
    outer loop
      vertex -0.572949 13 78.8218
      vertex -0.572949 13 68.6532
      vertex -2.42705 13 78.8218
    endloop
  endfacet
  facet normal 0 1 0
    outer loop
      vertex -2.42705 13 68.6532
      vertex -2.42705 13 78.8218
      vertex -0.572949 13 68.6532
    endloop
  endfacet
  facet normal 0 1 0
    outer loop
      vertex -2.42705 13 78.8218
      vertex -2.42705 13 68.6532
      vertex -3.92705 13 79.9116
    endloop
  endfacet
  facet normal 0 1 0
    outer loop
      vertex -3.92705 13 67.5634
      vertex -3.92705 13 79.9116
      vertex -2.42705 13 68.6532
    endloop
  endfacet
  facet normal 0 1 0
    outer loop
      vertex -9.4375 13 59.45
      vertex -3.92705 13 79.9116
      vertex -3.92705 13 67.5634
    endloop
  endfacet
  facet normal 0 1 0
    outer loop
      vertex -3.92705 13 79.9116
      vertex -9.4375 13 59.45
      vertex -4.5 13 81.675
    endloop
  endfacet
  facet normal 0 1 0
    outer loop
      vertex -9.4375 13 59.45
      vertex -3.92705 13 67.5634
      vertex -4.5 13 65.8
    endloop
  endfacet
  facet normal 0 1 0
    outer loop
      vertex -0.572949 13 62.9468
      vertex 6.4375 13 59.45
      vertex -2.42705 13 62.9468
    endloop
  endfacet
  facet normal 0 1 0
    outer loop
      vertex -4.5 13 81.675
      vertex -9.4375 13 59.45
      vertex -9.4375 13 103.9
    endloop
  endfacet
  facet normal 0 1 0
    outer loop
      vertex -3.92705 13 64.0366
      vertex -9.4375 13 59.45
      vertex -4.5 13 65.8
    endloop
  endfacet
  facet normal 0 1 0
    outer loop
      vertex -2.42705 13 62.9468
      vertex -9.4375 13 59.45
      vertex -3.92705 13 64.0366
    endloop
  endfacet
  facet normal 0 1 0
    outer loop
      vertex -9.4375 13 59.45
      vertex -2.42705 13 62.9468
      vertex 6.4375 13 59.45
    endloop
  endfacet
  facet normal 0 -1 0
    outer loop
      vertex -0.572949 3 100.403
      vertex 6.4375 3 103.9
      vertex -9.4375 3 103.9
    endloop
  endfacet
  facet normal 0 -1 0
    outer loop
      vertex -0.572949 3 100.403
      vertex -9.4375 3 103.9
      vertex -2.42705 3 100.403
    endloop
  endfacet
  facet normal 0 -1 0
    outer loop
      vertex -9.4375 3 103.9
      vertex -3.92705 3 99.3134
      vertex -2.42705 3 100.403
    endloop
  endfacet
  facet normal 0 -1 0
    outer loop
      vertex -9.4375 3 103.9
      vertex -4.5 3 97.55
      vertex -3.92705 3 99.3134
    endloop
  endfacet
  facet normal 0 -1 0
    outer loop
      vertex -9.4375 3 103.9
      vertex -3.92705 3 95.7866
      vertex -4.5 3 97.55
    endloop
  endfacet
  facet normal 0 -1 0
    outer loop
      vertex -2.42705 3 94.6968
      vertex -2.42705 3 84.5282
      vertex -0.572949 3 94.6968
    endloop
  endfacet
  facet normal 0 -1 0
    outer loop
      vertex -3.92705 3 95.7866
      vertex -2.42705 3 84.5282
      vertex -2.42705 3 94.6968
    endloop
  endfacet
  facet normal 0 -1 0
    outer loop
      vertex -3.92705 3 83.4384
      vertex -3.92705 3 95.7866
      vertex -9.4375 3 103.9
    endloop
  endfacet
  facet normal 0 -1 0
    outer loop
      vertex -3.92705 3 95.7866
      vertex -3.92705 3 83.4384
      vertex -2.42705 3 84.5282
    endloop
  endfacet
  facet normal 0 -1 0
    outer loop
      vertex -9.4375 3 103.9
      vertex -4.5 3 81.675
      vertex -3.92705 3 83.4384
    endloop
  endfacet
  facet normal 0 -1 0
    outer loop
      vertex -2.42705 3 78.8218
      vertex -2.42705 3 68.6532
      vertex -0.572949 3 78.8218
    endloop
  endfacet
  facet normal 0 -1 0
    outer loop
      vertex -3.92705 3 79.9116
      vertex -2.42705 3 68.6532
      vertex -2.42705 3 78.8218
    endloop
  endfacet
  facet normal 0 -1 0
    outer loop
      vertex -9.4375 3 59.45
      vertex -3.92705 3 79.9116
      vertex -4.5 3 81.675
    endloop
  endfacet
  facet normal 0 -1 0
    outer loop
      vertex -9.4375 3 59.45
      vertex -4.5 3 81.675
      vertex -9.4375 3 103.9
    endloop
  endfacet
  facet normal 0 -1 0
    outer loop
      vertex -3.92705 3 79.9116
      vertex -3.92705 3 67.5634
      vertex -2.42705 3 68.6532
    endloop
  endfacet
  facet normal 0 -1 -0
    outer loop
      vertex -3.92705 3 79.9116
      vertex -9.4375 3 59.45
      vertex -3.92705 3 67.5634
    endloop
  endfacet
  facet normal 0 -1 0
    outer loop
      vertex 6.4375 3 59.45
      vertex -0.572949 3 62.9468
      vertex -2.42705 3 62.9468
    endloop
  endfacet
  facet normal 0 -1 0
    outer loop
      vertex -3.92705 3 67.5634
      vertex -9.4375 3 59.45
      vertex -4.5 3 65.8
    endloop
  endfacet
  facet normal 0 -1 0
    outer loop
      vertex -9.4375 3 59.45
      vertex -3.92705 3 64.0366
      vertex -4.5 3 65.8
    endloop
  endfacet
  facet normal 0 -1 0
    outer loop
      vertex -9.4375 3 59.45
      vertex -2.42705 3 62.9468
      vertex -3.92705 3 64.0366
    endloop
  endfacet
  facet normal 0 -1 0
    outer loop
      vertex 6.4375 3 59.45
      vertex -2.42705 3 62.9468
      vertex -9.4375 3 59.45
    endloop
  endfacet
  facet normal 0 -1 0
    outer loop
      vertex 0.927051 3 99.3134
      vertex 6.4375 3 103.9
      vertex -0.572949 3 100.403
    endloop
  endfacet
  facet normal 0 -1 0
    outer loop
      vertex 1.5 3 97.55
      vertex 6.4375 3 103.9
      vertex 0.927051 3 99.3134
    endloop
  endfacet
  facet normal 0 -1 -0
    outer loop
      vertex 6.4375 3 103.9
      vertex 1.5 3 97.55
      vertex 9.4375 3 103.9
    endloop
  endfacet
  facet normal 0 -1 0
    outer loop
      vertex 0.927051 3 95.7866
      vertex 9.4375 3 103.9
      vertex 1.5 3 97.55
    endloop
  endfacet
  facet normal 0 -1 0
    outer loop
      vertex -0.572949 3 84.5282
      vertex -0.572949 3 94.6968
      vertex -2.42705 3 84.5282
    endloop
  endfacet
  facet normal 0 -1 0
    outer loop
      vertex -0.572949 3 94.6968
      vertex -0.572949 3 84.5282
      vertex 0.927051 3 95.7866
    endloop
  endfacet
  facet normal 0 -1 0
    outer loop
      vertex 0.927051 3 83.4384
      vertex 0.927051 3 95.7866
      vertex -0.572949 3 84.5282
    endloop
  endfacet
  facet normal 0 -1 0
    outer loop
      vertex 0.927051 3 95.7866
      vertex 0.927051 3 83.4384
      vertex 9.4375 3 103.9
    endloop
  endfacet
  facet normal 0 -1 0
    outer loop
      vertex 1.5 3 81.675
      vertex 9.4375 3 103.9
      vertex 0.927051 3 83.4384
    endloop
  endfacet
  facet normal 0 -1 0
    outer loop
      vertex 9.4375 3 59.45
      vertex 1.5 3 81.675
      vertex 0.927051 3 79.9116
    endloop
  endfacet
  facet normal 0 -1 0
    outer loop
      vertex -0.572949 3 68.6532
      vertex -0.572949 3 78.8218
      vertex -2.42705 3 68.6532
    endloop
  endfacet
  facet normal 0 -1 0
    outer loop
      vertex -0.572949 3 78.8218
      vertex -0.572949 3 68.6532
      vertex 0.927051 3 79.9116
    endloop
  endfacet
  facet normal 0 -1 0
    outer loop
      vertex 0.927051 3 67.5634
      vertex 0.927051 3 79.9116
      vertex -0.572949 3 68.6532
    endloop
  endfacet
  facet normal 0 -1 0
    outer loop
      vertex 9.4375 3 59.45
      vertex 0.927051 3 79.9116
      vertex 0.927051 3 67.5634
    endloop
  endfacet
  facet normal 0 -1 0
    outer loop
      vertex 9.4375 3 59.45
      vertex 0.927051 3 67.5634
      vertex 1.5 3 65.8
    endloop
  endfacet
  facet normal 0 -1 0
    outer loop
      vertex 6.4375 3 59.45
      vertex 0.927051 3 64.0366
      vertex -0.572949 3 62.9468
    endloop
  endfacet
  facet normal 0 -1 0
    outer loop
      vertex 6.4375 3 59.45
      vertex 1.5 3 65.8
      vertex 0.927051 3 64.0366
    endloop
  endfacet
  facet normal 0 -1 0
    outer loop
      vertex 9.4375 3 59.45
      vertex 1.5 3 65.8
      vertex 6.4375 3 59.45
    endloop
  endfacet
  facet normal 0 -1 0
    outer loop
      vertex 1.5 3 81.675
      vertex 9.4375 3 59.45
      vertex 9.4375 3 103.9
    endloop
  endfacet
  facet normal -0.58771 0 -0.809072
    outer loop
      vertex -0.572949 3 100.403
      vertex 0.927051 13 99.3134
      vertex 0.927051 3 99.3134
    endloop
  endfacet
  facet normal -0.58771 0 -0.809072
    outer loop
      vertex 0.927051 13 99.3134
      vertex -0.572949 3 100.403
      vertex -0.572949 13 100.403
    endloop
  endfacet
  facet normal -0.951059 0 -0.30901
    outer loop
      vertex 1.5 3 97.55
      vertex 0.927051 13 99.3134
      vertex 1.5 13 97.55
    endloop
  endfacet
  facet normal -0.951059 -0 -0.30901
    outer loop
      vertex 0.927051 13 99.3134
      vertex 1.5 3 97.55
      vertex 0.927051 3 99.3134
    endloop
  endfacet
  facet normal 0 0 -1
    outer loop
      vertex -2.42705 3 100.403
      vertex -0.572949 13 100.403
      vertex -0.572949 3 100.403
    endloop
  endfacet
  facet normal -0 0 -1
    outer loop
      vertex -0.572949 13 100.403
      vertex -2.42705 3 100.403
      vertex -2.42705 13 100.403
    endloop
  endfacet
  facet normal -0.58778 0 0.809021
    outer loop
      vertex -0.572949 13 94.6968
      vertex 0.927051 3 95.7866
      vertex 0.927051 13 95.7866
    endloop
  endfacet
  facet normal -0.58778 0 0.809021
    outer loop
      vertex 0.927051 3 95.7866
      vertex -0.572949 13 94.6968
      vertex -0.572949 3 94.6968
    endloop
  endfacet
  facet normal 0.951059 -0 0.30901
    outer loop
      vertex -4.5 3 97.55
      vertex -3.92705 13 95.7866
      vertex -4.5 13 97.55
    endloop
  endfacet
  facet normal 0.951059 0 0.30901
    outer loop
      vertex -3.92705 13 95.7866
      vertex -4.5 3 97.55
      vertex -3.92705 3 95.7866
    endloop
  endfacet
  facet normal -0 0 1
    outer loop
      vertex -2.42705 13 94.6968
      vertex -0.572949 3 94.6968
      vertex -0.572949 13 94.6968
    endloop
  endfacet
  facet normal 0 0 1
    outer loop
      vertex -0.572949 3 94.6968
      vertex -2.42705 13 94.6968
      vertex -2.42705 3 94.6968
    endloop
  endfacet
  facet normal 0.58778 0 0.809021
    outer loop
      vertex -3.92705 13 95.7866
      vertex -2.42705 3 94.6968
      vertex -2.42705 13 94.6968
    endloop
  endfacet
  facet normal 0.58778 0 0.809021
    outer loop
      vertex -2.42705 3 94.6968
      vertex -3.92705 13 95.7866
      vertex -3.92705 3 95.7866
    endloop
  endfacet
  facet normal -0.951059 0 0.30901
    outer loop
      vertex 0.927051 3 95.7866
      vertex 1.5 13 97.55
      vertex 0.927051 13 95.7866
    endloop
  endfacet
  facet normal -0.951059 0 0.30901
    outer loop
      vertex 1.5 13 97.55
      vertex 0.927051 3 95.7866
      vertex 1.5 3 97.55
    endloop
  endfacet
  facet normal 0.58771 0 -0.809072
    outer loop
      vertex -3.92705 3 99.3134
      vertex -2.42705 13 100.403
      vertex -2.42705 3 100.403
    endloop
  endfacet
  facet normal 0.58771 0 -0.809072
    outer loop
      vertex -2.42705 13 100.403
      vertex -3.92705 3 99.3134
      vertex -3.92705 13 99.3134
    endloop
  endfacet
  facet normal 0.951059 0 -0.30901
    outer loop
      vertex -3.92705 3 99.3134
      vertex -4.5 13 97.55
      vertex -3.92705 13 99.3134
    endloop
  endfacet
  facet normal 0.951059 0 -0.30901
    outer loop
      vertex -4.5 13 97.55
      vertex -3.92705 3 99.3134
      vertex -4.5 3 97.55
    endloop
  endfacet
  facet normal -0.58778 0 -0.809021
    outer loop
      vertex -0.572949 3 84.5282
      vertex 0.927051 13 83.4384
      vertex 0.927051 3 83.4384
    endloop
  endfacet
  facet normal -0.58778 0 -0.809021
    outer loop
      vertex 0.927051 13 83.4384
      vertex -0.572949 3 84.5282
      vertex -0.572949 13 84.5282
    endloop
  endfacet
  facet normal -0.951059 0 -0.30901
    outer loop
      vertex 1.5 3 81.675
      vertex 0.927051 13 83.4384
      vertex 1.5 13 81.675
    endloop
  endfacet
  facet normal -0.951059 -0 -0.30901
    outer loop
      vertex 0.927051 13 83.4384
      vertex 1.5 3 81.675
      vertex 0.927051 3 83.4384
    endloop
  endfacet
  facet normal 0 0 -1
    outer loop
      vertex -2.42705 3 84.5282
      vertex -0.572949 13 84.5282
      vertex -0.572949 3 84.5282
    endloop
  endfacet
  facet normal -0 0 -1
    outer loop
      vertex -0.572949 13 84.5282
      vertex -2.42705 3 84.5282
      vertex -2.42705 13 84.5282
    endloop
  endfacet
  facet normal -0.58778 0 0.809021
    outer loop
      vertex -0.572949 13 78.8218
      vertex 0.927051 3 79.9116
      vertex 0.927051 13 79.9116
    endloop
  endfacet
  facet normal -0.58778 0 0.809021
    outer loop
      vertex 0.927051 3 79.9116
      vertex -0.572949 13 78.8218
      vertex -0.572949 3 78.8218
    endloop
  endfacet
  facet normal 0.58778 0 -0.809021
    outer loop
      vertex -3.92705 3 83.4384
      vertex -2.42705 13 84.5282
      vertex -2.42705 3 84.5282
    endloop
  endfacet
  facet normal 0.58778 0 -0.809021
    outer loop
      vertex -2.42705 13 84.5282
      vertex -3.92705 3 83.4384
      vertex -3.92705 13 83.4384
    endloop
  endfacet
  facet normal 0.58778 0 0.809021
    outer loop
      vertex -3.92705 13 79.9116
      vertex -2.42705 3 78.8218
      vertex -2.42705 13 78.8218
    endloop
  endfacet
  facet normal 0.58778 0 0.809021
    outer loop
      vertex -2.42705 3 78.8218
      vertex -3.92705 13 79.9116
      vertex -3.92705 3 79.9116
    endloop
  endfacet
  facet normal 0.951059 -0 0.30901
    outer loop
      vertex -4.5 3 81.675
      vertex -3.92705 13 79.9116
      vertex -4.5 13 81.675
    endloop
  endfacet
  facet normal 0.951059 0 0.30901
    outer loop
      vertex -3.92705 13 79.9116
      vertex -4.5 3 81.675
      vertex -3.92705 3 79.9116
    endloop
  endfacet
  facet normal -0 0 1
    outer loop
      vertex -2.42705 13 78.8218
      vertex -0.572949 3 78.8218
      vertex -0.572949 13 78.8218
    endloop
  endfacet
  facet normal 0 0 1
    outer loop
      vertex -0.572949 3 78.8218
      vertex -2.42705 13 78.8218
      vertex -2.42705 3 78.8218
    endloop
  endfacet
  facet normal 0.951059 0 -0.30901
    outer loop
      vertex -3.92705 3 83.4384
      vertex -4.5 13 81.675
      vertex -3.92705 13 83.4384
    endloop
  endfacet
  facet normal 0.951059 0 -0.30901
    outer loop
      vertex -4.5 13 81.675
      vertex -3.92705 3 83.4384
      vertex -4.5 3 81.675
    endloop
  endfacet
  facet normal -0.951059 0 0.30901
    outer loop
      vertex 0.927051 3 79.9116
      vertex 1.5 13 81.675
      vertex 0.927051 13 79.9116
    endloop
  endfacet
  facet normal -0.951059 0 0.30901
    outer loop
      vertex 1.5 13 81.675
      vertex 0.927051 3 79.9116
      vertex 1.5 3 81.675
    endloop
  endfacet
  facet normal -0.58778 0 -0.809021
    outer loop
      vertex -0.572949 3 68.6532
      vertex 0.927051 13 67.5634
      vertex 0.927051 3 67.5634
    endloop
  endfacet
  facet normal -0.58778 0 -0.809021
    outer loop
      vertex 0.927051 13 67.5634
      vertex -0.572949 3 68.6532
      vertex -0.572949 13 68.6532
    endloop
  endfacet
  facet normal -0.951059 0 -0.30901
    outer loop
      vertex 1.5 3 65.8
      vertex 0.927051 13 67.5634
      vertex 1.5 13 65.8
    endloop
  endfacet
  facet normal -0.951059 -0 -0.30901
    outer loop
      vertex 0.927051 13 67.5634
      vertex 1.5 3 65.8
      vertex 0.927051 3 67.5634
    endloop
  endfacet
  facet normal 0 0 -1
    outer loop
      vertex -2.42705 3 68.6532
      vertex -0.572949 13 68.6532
      vertex -0.572949 3 68.6532
    endloop
  endfacet
  facet normal -0 0 -1
    outer loop
      vertex -0.572949 13 68.6532
      vertex -2.42705 3 68.6532
      vertex -2.42705 13 68.6532
    endloop
  endfacet
  facet normal -0.58778 0 0.809021
    outer loop
      vertex -0.572949 13 62.9468
      vertex 0.927051 3 64.0366
      vertex 0.927051 13 64.0366
    endloop
  endfacet
  facet normal -0.58778 0 0.809021
    outer loop
      vertex 0.927051 3 64.0366
      vertex -0.572949 13 62.9468
      vertex -0.572949 3 62.9468
    endloop
  endfacet
  facet normal 0.58778 0 -0.809021
    outer loop
      vertex -3.92705 3 67.5634
      vertex -2.42705 13 68.6532
      vertex -2.42705 3 68.6532
    endloop
  endfacet
  facet normal 0.58778 0 -0.809021
    outer loop
      vertex -2.42705 13 68.6532
      vertex -3.92705 3 67.5634
      vertex -3.92705 13 67.5634
    endloop
  endfacet
  facet normal 0.58778 0 0.809021
    outer loop
      vertex -3.92705 13 64.0366
      vertex -2.42705 3 62.9468
      vertex -2.42705 13 62.9468
    endloop
  endfacet
  facet normal 0.58778 0 0.809021
    outer loop
      vertex -2.42705 3 62.9468
      vertex -3.92705 13 64.0366
      vertex -3.92705 3 64.0366
    endloop
  endfacet
  facet normal -0.951059 0 0.30901
    outer loop
      vertex 0.927051 3 64.0366
      vertex 1.5 13 65.8
      vertex 0.927051 13 64.0366
    endloop
  endfacet
  facet normal -0.951059 0 0.30901
    outer loop
      vertex 1.5 13 65.8
      vertex 0.927051 3 64.0366
      vertex 1.5 3 65.8
    endloop
  endfacet
  facet normal 0.951059 -0 0.30901
    outer loop
      vertex -4.5 3 65.8
      vertex -3.92705 13 64.0366
      vertex -4.5 13 65.8
    endloop
  endfacet
  facet normal 0.951059 0 0.30901
    outer loop
      vertex -3.92705 13 64.0366
      vertex -4.5 3 65.8
      vertex -3.92705 3 64.0366
    endloop
  endfacet
  facet normal -0 0 1
    outer loop
      vertex -2.42705 13 62.9468
      vertex -0.572949 3 62.9468
      vertex -0.572949 13 62.9468
    endloop
  endfacet
  facet normal 0 0 1
    outer loop
      vertex -0.572949 3 62.9468
      vertex -2.42705 13 62.9468
      vertex -2.42705 3 62.9468
    endloop
  endfacet
  facet normal 0.951059 0 -0.30901
    outer loop
      vertex -3.92705 3 67.5634
      vertex -4.5 13 65.8
      vertex -3.92705 13 67.5634
    endloop
  endfacet
  facet normal 0.951059 0 -0.30901
    outer loop
      vertex -4.5 13 65.8
      vertex -3.92705 3 67.5634
      vertex -4.5 3 65.8
    endloop
  endfacet
  facet normal -1 0 0
    outer loop
      vertex 6.4375 13 25
      vertex 6.4375 30.8793 25.2982
      vertex 6.4375 48.433 10
    endloop
  endfacet
  facet normal -1 -0 0
    outer loop
      vertex 6.4375 30.8793 25.2982
      vertex 6.4375 13 25
      vertex 6.4375 13 35.225
    endloop
  endfacet
  facet normal -1 0 0
    outer loop
      vertex 6.4375 30.8793 27.7241
      vertex 6.4375 48.433 10
      vertex 6.4375 30.8793 25.2982
    endloop
  endfacet
  facet normal -1 0 0
    outer loop
      vertex 6.4375 48.433 10
      vertex 6.4375 30.8793 27.7241
      vertex 6.4375 68.433 10
    endloop
  endfacet
  facet normal -1 0 0
    outer loop
      vertex 6.4375 13 49.45
      vertex 6.4375 30.8793 27.7241
      vertex 6.4375 13 39.225
    endloop
  endfacet
  facet normal -1 0 0
    outer loop
      vertex 6.4375 30.8793 27.7241
      vertex 6.4375 13 49.45
      vertex 6.4375 68.433 10
    endloop
  endfacet
  facet normal -0 0 1
    outer loop
      vertex -9.4375 13 59.45
      vertex 6.4375 3 59.45
      vertex 6.4375 13 59.45
    endloop
  endfacet
  facet normal 0 0 1
    outer loop
      vertex 6.4375 3 59.45
      vertex -9.4375 13 59.45
      vertex -9.4375 3 59.45
    endloop
  endfacet
  facet normal 0 0 -1
    outer loop
      vertex -9.4375 3 15
      vertex 6.4375 13 15
      vertex 6.4375 3 15
    endloop
  endfacet
  facet normal -0 0 -1
    outer loop
      vertex 6.4375 13 15
      vertex -9.4375 3 15
      vertex -9.4375 13 15
    endloop
  endfacet
  facet normal -1 0 0
    outer loop
      vertex -9.4375 3 15
      vertex -9.4375 13 59.45
      vertex -9.4375 13 15
    endloop
  endfacet
  facet normal -1 -0 0
    outer loop
      vertex -9.4375 13 59.45
      vertex -9.4375 3 15
      vertex -9.4375 3 59.45
    endloop
  endfacet
  facet normal 0 1 0
    outer loop
      vertex 6.4375 13 15
      vertex 6.4375 13 25
      vertex 9.4375 13 25
    endloop
  endfacet
  facet normal 0 1 0
    outer loop
      vertex 6.4375 13 25
      vertex 0.927051 13 23.1134
      vertex -0.572949 13 24.2032
    endloop
  endfacet
  facet normal 0 1 0
    outer loop
      vertex 6.4375 13 25
      vertex 1.5 13 21.35
      vertex 0.927051 13 23.1134
    endloop
  endfacet
  facet normal 0 1 0
    outer loop
      vertex 6.4375 13 25
      vertex 6.4375 13 15
      vertex 1.5 13 21.35
    endloop
  endfacet
  facet normal 0 1 0
    outer loop
      vertex 1.5 13 21.35
      vertex 6.4375 13 15
      vertex 0.927051 13 19.5866
    endloop
  endfacet
  facet normal 0 1 0
    outer loop
      vertex 0.927051 13 19.5866
      vertex 6.4375 13 15
      vertex -0.572949 13 18.4968
    endloop
  endfacet
  facet normal 0 1 0
    outer loop
      vertex 6.4375 13 15
      vertex 9.4375 13 25
      vertex 9.4375 13 15
    endloop
  endfacet
  facet normal 0 1 0
    outer loop
      vertex 6.4375 13 35.225
      vertex 6.4375 13 39.225
      vertex 9.4375 13 39.225
    endloop
  endfacet
  facet normal 0 1 0
    outer loop
      vertex 6.4375 13 39.225
      vertex 1.5 13 37.225
      vertex 0.927051 13 38.9884
    endloop
  endfacet
  facet normal 0 1 0
    outer loop
      vertex 6.4375 13 39.225
      vertex 6.4375 13 35.225
      vertex 1.5 13 37.225
    endloop
  endfacet
  facet normal 0 1 0
    outer loop
      vertex 6.4375 13 35.225
      vertex 9.4375 13 39.225
      vertex 9.4375 13 35.225
    endloop
  endfacet
  facet normal 0 1 0
    outer loop
      vertex 1.5 13 37.225
      vertex 6.4375 13 35.225
      vertex 0.927051 13 35.4616
    endloop
  endfacet
  facet normal 0 1 0
    outer loop
      vertex 6.4375 13 35.225
      vertex -0.572949 13 34.3718
      vertex 0.927051 13 35.4616
    endloop
  endfacet
  facet normal 0 1 0
    outer loop
      vertex -0.572949 13 24.2032
      vertex -0.572949 13 34.3718
      vertex 6.4375 13 25
    endloop
  endfacet
  facet normal 0 1 -0
    outer loop
      vertex 6.4375 13 25
      vertex -0.572949 13 34.3718
      vertex 6.4375 13 35.225
    endloop
  endfacet
  facet normal 0 1 -0
    outer loop
      vertex 6.4375 13 39.225
      vertex -0.572949 13 40.0782
      vertex 6.4375 13 49.45
    endloop
  endfacet
  facet normal 0 1 0
    outer loop
      vertex -0.572949 13 40.0782
      vertex 6.4375 13 39.225
      vertex 0.927051 13 38.9884
    endloop
  endfacet
  facet normal 0 1 0
    outer loop
      vertex 6.4375 13 49.45
      vertex 6.4375 13 59.45
      vertex 9.4375 13 59.45
    endloop
  endfacet
  facet normal 0 1 0
    outer loop
      vertex 6.4375 13 59.45
      vertex -0.572949 13 55.9532
      vertex -9.4375 13 59.45
    endloop
  endfacet
  facet normal 0 1 0
    outer loop
      vertex 6.4375 13 59.45
      vertex 0.927051 13 54.8634
      vertex -0.572949 13 55.9532
    endloop
  endfacet
  facet normal 0 1 0
    outer loop
      vertex 6.4375 13 59.45
      vertex 1.5 13 53.1
      vertex 0.927051 13 54.8634
    endloop
  endfacet
  facet normal 0 1 0
    outer loop
      vertex 6.4375 13 59.45
      vertex 6.4375 13 49.45
      vertex 1.5 13 53.1
    endloop
  endfacet
  facet normal 0 1 0
    outer loop
      vertex 0.927051 13 51.3366
      vertex 6.4375 13 49.45
      vertex -0.572949 13 50.2468
    endloop
  endfacet
  facet normal 0 1 0
    outer loop
      vertex 1.5 13 53.1
      vertex 6.4375 13 49.45
      vertex 0.927051 13 51.3366
    endloop
  endfacet
  facet normal 0 1 0
    outer loop
      vertex 6.4375 13 49.45
      vertex 9.4375 13 59.45
      vertex 9.4375 13 49.45
    endloop
  endfacet
  facet normal 0 1 -0
    outer loop
      vertex -2.42705 13 55.9532
      vertex -9.4375 13 59.45
      vertex -0.572949 13 55.9532
    endloop
  endfacet
  facet normal 0 1 -0
    outer loop
      vertex -3.92705 13 54.8634
      vertex -9.4375 13 59.45
      vertex -2.42705 13 55.9532
    endloop
  endfacet
  facet normal 0 1 -0
    outer loop
      vertex -4.5 13 53.1
      vertex -9.4375 13 59.45
      vertex -3.92705 13 54.8634
    endloop
  endfacet
  facet normal 0 1 0
    outer loop
      vertex -3.92705 13 51.3366
      vertex -9.4375 13 59.45
      vertex -4.5 13 53.1
    endloop
  endfacet
  facet normal 0 1 0
    outer loop
      vertex -0.572949 13 40.0782
      vertex -0.572949 13 50.2468
      vertex 6.4375 13 49.45
    endloop
  endfacet
  facet normal 0 1 0
    outer loop
      vertex -0.572949 13 50.2468
      vertex -0.572949 13 40.0782
      vertex -2.42705 13 50.2468
    endloop
  endfacet
  facet normal 0 1 0
    outer loop
      vertex -2.42705 13 40.0782
      vertex -2.42705 13 50.2468
      vertex -0.572949 13 40.0782
    endloop
  endfacet
  facet normal 0 1 0
    outer loop
      vertex -2.42705 13 50.2468
      vertex -2.42705 13 40.0782
      vertex -3.92705 13 51.3366
    endloop
  endfacet
  facet normal 0 1 0
    outer loop
      vertex -3.92705 13 38.9884
      vertex -3.92705 13 51.3366
      vertex -2.42705 13 40.0782
    endloop
  endfacet
  facet normal 0 1 0
    outer loop
      vertex -3.92705 13 51.3366
      vertex -3.92705 13 38.9884
      vertex -9.4375 13 59.45
    endloop
  endfacet
  facet normal 0 1 -0
    outer loop
      vertex -4.5 13 37.225
      vertex -9.4375 13 59.45
      vertex -3.92705 13 38.9884
    endloop
  endfacet
  facet normal 0 1 0
    outer loop
      vertex -0.572949 13 34.3718
      vertex -0.572949 13 24.2032
      vertex -2.42705 13 34.3718
    endloop
  endfacet
  facet normal 0 1 0
    outer loop
      vertex -2.42705 13 24.2032
      vertex -2.42705 13 34.3718
      vertex -0.572949 13 24.2032
    endloop
  endfacet
  facet normal 0 1 0
    outer loop
      vertex -2.42705 13 34.3718
      vertex -2.42705 13 24.2032
      vertex -3.92705 13 35.4616
    endloop
  endfacet
  facet normal 0 1 0
    outer loop
      vertex -3.92705 13 23.1134
      vertex -3.92705 13 35.4616
      vertex -2.42705 13 24.2032
    endloop
  endfacet
  facet normal 0 1 0
    outer loop
      vertex -9.4375 13 15
      vertex -3.92705 13 35.4616
      vertex -3.92705 13 23.1134
    endloop
  endfacet
  facet normal 0 1 0
    outer loop
      vertex -3.92705 13 35.4616
      vertex -9.4375 13 15
      vertex -4.5 13 37.225
    endloop
  endfacet
  facet normal 0 1 0
    outer loop
      vertex -9.4375 13 15
      vertex -3.92705 13 23.1134
      vertex -4.5 13 21.35
    endloop
  endfacet
  facet normal 0 1 0
    outer loop
      vertex -0.572949 13 18.4968
      vertex 6.4375 13 15
      vertex -2.42705 13 18.4968
    endloop
  endfacet
  facet normal 0 1 0
    outer loop
      vertex -4.5 13 37.225
      vertex -9.4375 13 15
      vertex -9.4375 13 59.45
    endloop
  endfacet
  facet normal 0 1 0
    outer loop
      vertex -3.92705 13 19.5866
      vertex -9.4375 13 15
      vertex -4.5 13 21.35
    endloop
  endfacet
  facet normal 0 1 0
    outer loop
      vertex -2.42705 13 18.4968
      vertex -9.4375 13 15
      vertex -3.92705 13 19.5866
    endloop
  endfacet
  facet normal 0 1 0
    outer loop
      vertex -9.4375 13 15
      vertex -2.42705 13 18.4968
      vertex 6.4375 13 15
    endloop
  endfacet
  facet normal 0 -1 0
    outer loop
      vertex -0.572949 3 55.9532
      vertex 6.4375 3 59.45
      vertex -9.4375 3 59.45
    endloop
  endfacet
  facet normal 0 -1 0
    outer loop
      vertex -0.572949 3 55.9532
      vertex -9.4375 3 59.45
      vertex -2.42705 3 55.9532
    endloop
  endfacet
  facet normal 0 -1 0
    outer loop
      vertex -9.4375 3 59.45
      vertex -3.92705 3 54.8634
      vertex -2.42705 3 55.9532
    endloop
  endfacet
  facet normal 0 -1 0
    outer loop
      vertex -9.4375 3 59.45
      vertex -4.5 3 53.1
      vertex -3.92705 3 54.8634
    endloop
  endfacet
  facet normal 0 -1 0
    outer loop
      vertex -9.4375 3 59.45
      vertex -3.92705 3 51.3366
      vertex -4.5 3 53.1
    endloop
  endfacet
  facet normal 0 -1 0
    outer loop
      vertex -2.42705 3 50.2468
      vertex -2.42705 3 40.0782
      vertex -0.572949 3 50.2468
    endloop
  endfacet
  facet normal 0 -1 0
    outer loop
      vertex -3.92705 3 51.3366
      vertex -2.42705 3 40.0782
      vertex -2.42705 3 50.2468
    endloop
  endfacet
  facet normal 0 -1 0
    outer loop
      vertex -3.92705 3 38.9884
      vertex -3.92705 3 51.3366
      vertex -9.4375 3 59.45
    endloop
  endfacet
  facet normal 0 -1 0
    outer loop
      vertex -3.92705 3 51.3366
      vertex -3.92705 3 38.9884
      vertex -2.42705 3 40.0782
    endloop
  endfacet
  facet normal 0 -1 0
    outer loop
      vertex -9.4375 3 59.45
      vertex -4.5 3 37.225
      vertex -3.92705 3 38.9884
    endloop
  endfacet
  facet normal 0 -1 0
    outer loop
      vertex -2.42705 3 34.3718
      vertex -2.42705 3 24.2032
      vertex -0.572949 3 34.3718
    endloop
  endfacet
  facet normal 0 -1 0
    outer loop
      vertex -3.92705 3 35.4616
      vertex -2.42705 3 24.2032
      vertex -2.42705 3 34.3718
    endloop
  endfacet
  facet normal 0 -1 0
    outer loop
      vertex -9.4375 3 15
      vertex -3.92705 3 35.4616
      vertex -4.5 3 37.225
    endloop
  endfacet
  facet normal 0 -1 0
    outer loop
      vertex -9.4375 3 15
      vertex -4.5 3 37.225
      vertex -9.4375 3 59.45
    endloop
  endfacet
  facet normal 0 -1 0
    outer loop
      vertex -3.92705 3 35.4616
      vertex -3.92705 3 23.1134
      vertex -2.42705 3 24.2032
    endloop
  endfacet
  facet normal 0 -1 -0
    outer loop
      vertex -3.92705 3 35.4616
      vertex -9.4375 3 15
      vertex -3.92705 3 23.1134
    endloop
  endfacet
  facet normal 0 -1 0
    outer loop
      vertex 6.4375 3 15
      vertex -0.572949 3 18.4968
      vertex -2.42705 3 18.4968
    endloop
  endfacet
  facet normal 0 -1 0
    outer loop
      vertex -3.92705 3 23.1134
      vertex -9.4375 3 15
      vertex -4.5 3 21.35
    endloop
  endfacet
  facet normal 0 -1 0
    outer loop
      vertex -9.4375 3 15
      vertex -3.92705 3 19.5866
      vertex -4.5 3 21.35
    endloop
  endfacet
  facet normal 0 -1 0
    outer loop
      vertex -9.4375 3 15
      vertex -2.42705 3 18.4968
      vertex -3.92705 3 19.5866
    endloop
  endfacet
  facet normal 0 -1 0
    outer loop
      vertex 6.4375 3 15
      vertex -2.42705 3 18.4968
      vertex -9.4375 3 15
    endloop
  endfacet
  facet normal 0 -1 0
    outer loop
      vertex 0.927051 3 54.8634
      vertex 6.4375 3 59.45
      vertex -0.572949 3 55.9532
    endloop
  endfacet
  facet normal 0 -1 0
    outer loop
      vertex 1.5 3 53.1
      vertex 6.4375 3 59.45
      vertex 0.927051 3 54.8634
    endloop
  endfacet
  facet normal 0 -1 -0
    outer loop
      vertex 6.4375 3 59.45
      vertex 1.5 3 53.1
      vertex 9.4375 3 59.45
    endloop
  endfacet
  facet normal 0 -1 0
    outer loop
      vertex 0.927051 3 51.3366
      vertex 9.4375 3 59.45
      vertex 1.5 3 53.1
    endloop
  endfacet
  facet normal 0 -1 0
    outer loop
      vertex -0.572949 3 40.0782
      vertex -0.572949 3 50.2468
      vertex -2.42705 3 40.0782
    endloop
  endfacet
  facet normal 0 -1 0
    outer loop
      vertex -0.572949 3 50.2468
      vertex -0.572949 3 40.0782
      vertex 0.927051 3 51.3366
    endloop
  endfacet
  facet normal 0 -1 0
    outer loop
      vertex 0.927051 3 38.9884
      vertex 0.927051 3 51.3366
      vertex -0.572949 3 40.0782
    endloop
  endfacet
  facet normal 0 -1 0
    outer loop
      vertex 0.927051 3 51.3366
      vertex 0.927051 3 38.9884
      vertex 9.4375 3 59.45
    endloop
  endfacet
  facet normal 0 -1 0
    outer loop
      vertex 1.5 3 37.225
      vertex 9.4375 3 59.45
      vertex 0.927051 3 38.9884
    endloop
  endfacet
  facet normal 0 -1 0
    outer loop
      vertex 9.4375 3 15
      vertex 1.5 3 37.225
      vertex 0.927051 3 35.4616
    endloop
  endfacet
  facet normal 0 -1 0
    outer loop
      vertex -0.572949 3 24.2032
      vertex -0.572949 3 34.3718
      vertex -2.42705 3 24.2032
    endloop
  endfacet
  facet normal 0 -1 0
    outer loop
      vertex -0.572949 3 34.3718
      vertex -0.572949 3 24.2032
      vertex 0.927051 3 35.4616
    endloop
  endfacet
  facet normal 0 -1 0
    outer loop
      vertex 0.927051 3 23.1134
      vertex 0.927051 3 35.4616
      vertex -0.572949 3 24.2032
    endloop
  endfacet
  facet normal 0 -1 0
    outer loop
      vertex 9.4375 3 15
      vertex 0.927051 3 35.4616
      vertex 0.927051 3 23.1134
    endloop
  endfacet
  facet normal 0 -1 0
    outer loop
      vertex 9.4375 3 15
      vertex 0.927051 3 23.1134
      vertex 1.5 3 21.35
    endloop
  endfacet
  facet normal 0 -1 0
    outer loop
      vertex 6.4375 3 15
      vertex 0.927051 3 19.5866
      vertex -0.572949 3 18.4968
    endloop
  endfacet
  facet normal 0 -1 0
    outer loop
      vertex 6.4375 3 15
      vertex 1.5 3 21.35
      vertex 0.927051 3 19.5866
    endloop
  endfacet
  facet normal 0 -1 0
    outer loop
      vertex 9.4375 3 15
      vertex 1.5 3 21.35
      vertex 6.4375 3 15
    endloop
  endfacet
  facet normal 0 -1 0
    outer loop
      vertex 1.5 3 37.225
      vertex 9.4375 3 15
      vertex 9.4375 3 59.45
    endloop
  endfacet
  facet normal -0.58778 0 -0.809021
    outer loop
      vertex -0.572949 3 55.9532
      vertex 0.927051 13 54.8634
      vertex 0.927051 3 54.8634
    endloop
  endfacet
  facet normal -0.58778 0 -0.809021
    outer loop
      vertex 0.927051 13 54.8634
      vertex -0.572949 3 55.9532
      vertex -0.572949 13 55.9532
    endloop
  endfacet
  facet normal -0.951059 0 -0.30901
    outer loop
      vertex 1.5 3 53.1
      vertex 0.927051 13 54.8634
      vertex 1.5 13 53.1
    endloop
  endfacet
  facet normal -0.951059 -0 -0.30901
    outer loop
      vertex 0.927051 13 54.8634
      vertex 1.5 3 53.1
      vertex 0.927051 3 54.8634
    endloop
  endfacet
  facet normal 0 0 -1
    outer loop
      vertex -2.42705 3 55.9532
      vertex -0.572949 13 55.9532
      vertex -0.572949 3 55.9532
    endloop
  endfacet
  facet normal -0 0 -1
    outer loop
      vertex -0.572949 13 55.9532
      vertex -2.42705 3 55.9532
      vertex -2.42705 13 55.9532
    endloop
  endfacet
  facet normal -0.58778 0 0.809021
    outer loop
      vertex -0.572949 13 50.2468
      vertex 0.927051 3 51.3366
      vertex 0.927051 13 51.3366
    endloop
  endfacet
  facet normal -0.58778 0 0.809021
    outer loop
      vertex 0.927051 3 51.3366
      vertex -0.572949 13 50.2468
      vertex -0.572949 3 50.2468
    endloop
  endfacet
  facet normal 0.951059 -0 0.30901
    outer loop
      vertex -4.5 3 53.1
      vertex -3.92705 13 51.3366
      vertex -4.5 13 53.1
    endloop
  endfacet
  facet normal 0.951059 0 0.30901
    outer loop
      vertex -3.92705 13 51.3366
      vertex -4.5 3 53.1
      vertex -3.92705 3 51.3366
    endloop
  endfacet
  facet normal -0 0 1
    outer loop
      vertex -2.42705 13 50.2468
      vertex -0.572949 3 50.2468
      vertex -0.572949 13 50.2468
    endloop
  endfacet
  facet normal 0 0 1
    outer loop
      vertex -0.572949 3 50.2468
      vertex -2.42705 13 50.2468
      vertex -2.42705 3 50.2468
    endloop
  endfacet
  facet normal 0.58778 0 0.809021
    outer loop
      vertex -3.92705 13 51.3366
      vertex -2.42705 3 50.2468
      vertex -2.42705 13 50.2468
    endloop
  endfacet
  facet normal 0.58778 0 0.809021
    outer loop
      vertex -2.42705 3 50.2468
      vertex -3.92705 13 51.3366
      vertex -3.92705 3 51.3366
    endloop
  endfacet
  facet normal -0.951059 0 0.30901
    outer loop
      vertex 0.927051 3 51.3366
      vertex 1.5 13 53.1
      vertex 0.927051 13 51.3366
    endloop
  endfacet
  facet normal -0.951059 0 0.30901
    outer loop
      vertex 1.5 13 53.1
      vertex 0.927051 3 51.3366
      vertex 1.5 3 53.1
    endloop
  endfacet
  facet normal 0.58778 0 -0.809021
    outer loop
      vertex -3.92705 3 54.8634
      vertex -2.42705 13 55.9532
      vertex -2.42705 3 55.9532
    endloop
  endfacet
  facet normal 0.58778 0 -0.809021
    outer loop
      vertex -2.42705 13 55.9532
      vertex -3.92705 3 54.8634
      vertex -3.92705 13 54.8634
    endloop
  endfacet
  facet normal 0.951059 0 -0.30901
    outer loop
      vertex -3.92705 3 54.8634
      vertex -4.5 13 53.1
      vertex -3.92705 13 54.8634
    endloop
  endfacet
  facet normal 0.951059 0 -0.30901
    outer loop
      vertex -4.5 13 53.1
      vertex -3.92705 3 54.8634
      vertex -4.5 3 53.1
    endloop
  endfacet
  facet normal -0.58778 0 -0.809021
    outer loop
      vertex -0.572949 3 40.0782
      vertex 0.927051 13 38.9884
      vertex 0.927051 3 38.9884
    endloop
  endfacet
  facet normal -0.58778 0 -0.809021
    outer loop
      vertex 0.927051 13 38.9884
      vertex -0.572949 3 40.0782
      vertex -0.572949 13 40.0782
    endloop
  endfacet
  facet normal -0.951059 0 -0.30901
    outer loop
      vertex 1.5 3 37.225
      vertex 0.927051 13 38.9884
      vertex 1.5 13 37.225
    endloop
  endfacet
  facet normal -0.951059 -0 -0.30901
    outer loop
      vertex 0.927051 13 38.9884
      vertex 1.5 3 37.225
      vertex 0.927051 3 38.9884
    endloop
  endfacet
  facet normal 0 0 -1
    outer loop
      vertex -2.42705 3 40.0782
      vertex -0.572949 13 40.0782
      vertex -0.572949 3 40.0782
    endloop
  endfacet
  facet normal -0 0 -1
    outer loop
      vertex -0.572949 13 40.0782
      vertex -2.42705 3 40.0782
      vertex -2.42705 13 40.0782
    endloop
  endfacet
  facet normal -0.58778 0 0.809021
    outer loop
      vertex -0.572949 13 34.3718
      vertex 0.927051 3 35.4616
      vertex 0.927051 13 35.4616
    endloop
  endfacet
  facet normal -0.58778 0 0.809021
    outer loop
      vertex 0.927051 3 35.4616
      vertex -0.572949 13 34.3718
      vertex -0.572949 3 34.3718
    endloop
  endfacet
  facet normal 0.58778 0 -0.809021
    outer loop
      vertex -3.92705 3 38.9884
      vertex -2.42705 13 40.0782
      vertex -2.42705 3 40.0782
    endloop
  endfacet
  facet normal 0.58778 0 -0.809021
    outer loop
      vertex -2.42705 13 40.0782
      vertex -3.92705 3 38.9884
      vertex -3.92705 13 38.9884
    endloop
  endfacet
  facet normal 0.58778 0 0.809021
    outer loop
      vertex -3.92705 13 35.4616
      vertex -2.42705 3 34.3718
      vertex -2.42705 13 34.3718
    endloop
  endfacet
  facet normal 0.58778 0 0.809021
    outer loop
      vertex -2.42705 3 34.3718
      vertex -3.92705 13 35.4616
      vertex -3.92705 3 35.4616
    endloop
  endfacet
  facet normal 0.951059 -0 0.30901
    outer loop
      vertex -4.5 3 37.225
      vertex -3.92705 13 35.4616
      vertex -4.5 13 37.225
    endloop
  endfacet
  facet normal 0.951059 0 0.30901
    outer loop
      vertex -3.92705 13 35.4616
      vertex -4.5 3 37.225
      vertex -3.92705 3 35.4616
    endloop
  endfacet
  facet normal -0 0 1
    outer loop
      vertex -2.42705 13 34.3718
      vertex -0.572949 3 34.3718
      vertex -0.572949 13 34.3718
    endloop
  endfacet
  facet normal 0 0 1
    outer loop
      vertex -0.572949 3 34.3718
      vertex -2.42705 13 34.3718
      vertex -2.42705 3 34.3718
    endloop
  endfacet
  facet normal 0.951059 0 -0.30901
    outer loop
      vertex -3.92705 3 38.9884
      vertex -4.5 13 37.225
      vertex -3.92705 13 38.9884
    endloop
  endfacet
  facet normal 0.951059 0 -0.30901
    outer loop
      vertex -4.5 13 37.225
      vertex -3.92705 3 38.9884
      vertex -4.5 3 37.225
    endloop
  endfacet
  facet normal -0.951059 0 0.30901
    outer loop
      vertex 0.927051 3 35.4616
      vertex 1.5 13 37.225
      vertex 0.927051 13 35.4616
    endloop
  endfacet
  facet normal -0.951059 0 0.30901
    outer loop
      vertex 1.5 13 37.225
      vertex 0.927051 3 35.4616
      vertex 1.5 3 37.225
    endloop
  endfacet
  facet normal -0.58778 0 -0.809021
    outer loop
      vertex -0.572949 3 24.2032
      vertex 0.927051 13 23.1134
      vertex 0.927051 3 23.1134
    endloop
  endfacet
  facet normal -0.58778 0 -0.809021
    outer loop
      vertex 0.927051 13 23.1134
      vertex -0.572949 3 24.2032
      vertex -0.572949 13 24.2032
    endloop
  endfacet
  facet normal -0.951059 0 -0.30901
    outer loop
      vertex 1.5 3 21.35
      vertex 0.927051 13 23.1134
      vertex 1.5 13 21.35
    endloop
  endfacet
  facet normal -0.951059 -0 -0.30901
    outer loop
      vertex 0.927051 13 23.1134
      vertex 1.5 3 21.35
      vertex 0.927051 3 23.1134
    endloop
  endfacet
  facet normal 0 0 -1
    outer loop
      vertex -2.42705 3 24.2032
      vertex -0.572949 13 24.2032
      vertex -0.572949 3 24.2032
    endloop
  endfacet
  facet normal -0 0 -1
    outer loop
      vertex -0.572949 13 24.2032
      vertex -2.42705 3 24.2032
      vertex -2.42705 13 24.2032
    endloop
  endfacet
  facet normal -0.58778 0 0.809021
    outer loop
      vertex -0.572949 13 18.4968
      vertex 0.927051 3 19.5866
      vertex 0.927051 13 19.5866
    endloop
  endfacet
  facet normal -0.58778 0 0.809021
    outer loop
      vertex 0.927051 3 19.5866
      vertex -0.572949 13 18.4968
      vertex -0.572949 3 18.4968
    endloop
  endfacet
  facet normal 0.58778 0 -0.809021
    outer loop
      vertex -3.92705 3 23.1134
      vertex -2.42705 13 24.2032
      vertex -2.42705 3 24.2032
    endloop
  endfacet
  facet normal 0.58778 0 -0.809021
    outer loop
      vertex -2.42705 13 24.2032
      vertex -3.92705 3 23.1134
      vertex -3.92705 13 23.1134
    endloop
  endfacet
  facet normal 0.58778 0 0.809021
    outer loop
      vertex -3.92705 13 19.5866
      vertex -2.42705 3 18.4968
      vertex -2.42705 13 18.4968
    endloop
  endfacet
  facet normal 0.58778 0 0.809021
    outer loop
      vertex -2.42705 3 18.4968
      vertex -3.92705 13 19.5866
      vertex -3.92705 3 19.5866
    endloop
  endfacet
  facet normal -0.951059 0 0.30901
    outer loop
      vertex 0.927051 3 19.5866
      vertex 1.5 13 21.35
      vertex 0.927051 13 19.5866
    endloop
  endfacet
  facet normal -0.951059 0 0.30901
    outer loop
      vertex 1.5 13 21.35
      vertex 0.927051 3 19.5866
      vertex 1.5 3 21.35
    endloop
  endfacet
  facet normal 0.951059 -0 0.30901
    outer loop
      vertex -4.5 3 21.35
      vertex -3.92705 13 19.5866
      vertex -4.5 13 21.35
    endloop
  endfacet
  facet normal 0.951059 0 0.30901
    outer loop
      vertex -3.92705 13 19.5866
      vertex -4.5 3 21.35
      vertex -3.92705 3 19.5866
    endloop
  endfacet
  facet normal -0 0 1
    outer loop
      vertex -2.42705 13 18.4968
      vertex -0.572949 3 18.4968
      vertex -0.572949 13 18.4968
    endloop
  endfacet
  facet normal 0 0 1
    outer loop
      vertex -0.572949 3 18.4968
      vertex -2.42705 13 18.4968
      vertex -2.42705 3 18.4968
    endloop
  endfacet
  facet normal 0.951059 0 -0.30901
    outer loop
      vertex -3.92705 3 23.1134
      vertex -4.5 13 21.35
      vertex -3.92705 13 23.1134
    endloop
  endfacet
  facet normal 0.951059 0 -0.30901
    outer loop
      vertex -4.5 13 21.35
      vertex -3.92705 3 23.1134
      vertex -4.5 3 21.35
    endloop
  endfacet
  facet normal 1 -0 0
    outer loop
      vertex 9.4375 3 148.35
      vertex 9.4375 13 138.35
      vertex 9.4375 13 148.35
    endloop
  endfacet
  facet normal 1 0 0
    outer loop
      vertex 9.4375 13 138.35
      vertex 9.4375 3 148.35
      vertex 9.4375 13 128.125
    endloop
  endfacet
  facet normal 1 0 0
    outer loop
      vertex 9.4375 13 128.125
      vertex 9.4375 3 148.35
      vertex 9.4375 13 124.125
    endloop
  endfacet
  facet normal 1 0 0
    outer loop
      vertex 9.4375 3 103.9
      vertex 9.4375 13 124.125
      vertex 9.4375 3 148.35
    endloop
  endfacet
  facet normal 1 0 0
    outer loop
      vertex 9.4375 13 124.125
      vertex 9.4375 3 103.9
      vertex 9.4375 13 113.9
    endloop
  endfacet
  facet normal 1 0 0
    outer loop
      vertex 9.4375 13 113.9
      vertex 9.4375 3 103.9
      vertex 9.4375 13 103.9
    endloop
  endfacet
  facet normal 1 -0 0
    outer loop
      vertex 9.4375 69.6667 57.4082
      vertex 9.4375 116.333 10
      vertex 9.4375 69.6667 59.0698
    endloop
  endfacet
  facet normal 1 0 0
    outer loop
      vertex 9.4375 13 138.35
      vertex 9.4375 69.6667 59.0698
      vertex 9.4375 116.333 10
    endloop
  endfacet
  facet normal 1 0 0
    outer loop
      vertex 9.4375 69.6667 59.0698
      vertex 9.4375 13 138.35
      vertex 9.4375 13 128.125
    endloop
  endfacet
  facet normal 1 0 0
    outer loop
      vertex 9.4375 116.333 10
      vertex 9.4375 69.6667 57.4082
      vertex 9.4375 103.533 10
    endloop
  endfacet
  facet normal 1 -0 0
    outer loop
      vertex 9.4375 13 113.9
      vertex 9.4375 69.6667 57.4082
      vertex 9.4375 13 124.125
    endloop
  endfacet
  facet normal 1 0 0
    outer loop
      vertex 9.4375 69.6667 57.4082
      vertex 9.4375 13 113.9
      vertex 9.4375 103.533 10
    endloop
  endfacet
  facet normal 0 -0.75394 -0.656944
    outer loop
      vertex 6.4375 103.533 10
      vertex 9.4375 13 113.9
      vertex 6.4375 13 113.9
    endloop
  endfacet
  facet normal 0 -0.75394 -0.656944
    outer loop
      vertex 9.4375 13 113.9
      vertex 6.4375 103.533 10
      vertex 9.4375 103.533 10
    endloop
  endfacet
  facet normal 0 0 -1
    outer loop
      vertex 6.4375 103.533 10
      vertex 9.4375 116.333 10
      vertex 9.4375 103.533 10
    endloop
  endfacet
  facet normal -0 0 -1
    outer loop
      vertex 9.4375 116.333 10
      vertex 6.4375 103.533 10
      vertex 6.4375 116.333 10
    endloop
  endfacet
  facet normal 0 0.778932 0.627108
    outer loop
      vertex 9.4375 116.333 10
      vertex 6.4375 13 138.35
      vertex 9.4375 13 138.35
    endloop
  endfacet
  facet normal 0 0.778932 0.627108
    outer loop
      vertex 6.4375 13 138.35
      vertex 9.4375 116.333 10
      vertex 6.4375 116.333 10
    endloop
  endfacet
  facet normal -0 0 1
    outer loop
      vertex 6.4375 13 148.35
      vertex 9.4375 3 148.35
      vertex 9.4375 13 148.35
    endloop
  endfacet
  facet normal 0 0 1
    outer loop
      vertex 9.4375 3 148.35
      vertex 6.4375 13 148.35
      vertex 6.4375 3 148.35
    endloop
  endfacet
  facet normal 0 0 -1
    outer loop
      vertex 6.4375 3 103.9
      vertex 9.4375 13 103.9
      vertex 9.4375 3 103.9
    endloop
  endfacet
  facet normal -0 0 -1
    outer loop
      vertex 9.4375 13 103.9
      vertex 6.4375 3 103.9
      vertex 6.4375 13 103.9
    endloop
  endfacet
  facet normal 0 -0.77304 -0.634357
    outer loop
      vertex 6.4375 69.6667 59.0698
      vertex 9.4375 13 128.125
      vertex 6.4375 13 128.125
    endloop
  endfacet
  facet normal 0 -0.77304 -0.634357
    outer loop
      vertex 9.4375 13 128.125
      vertex 6.4375 69.6667 59.0698
      vertex 9.4375 69.6667 59.0698
    endloop
  endfacet
  facet normal 0 -1 0
    outer loop
      vertex 6.4375 69.6667 57.4082
      vertex 9.4375 69.6667 59.0698
      vertex 6.4375 69.6667 59.0698
    endloop
  endfacet
  facet normal 0 -1 -0
    outer loop
      vertex 9.4375 69.6667 59.0698
      vertex 6.4375 69.6667 57.4082
      vertex 9.4375 69.6667 57.4082
    endloop
  endfacet
  facet normal 0 0.762179 0.647366
    outer loop
      vertex 9.4375 69.6667 57.4082
      vertex 6.4375 13 124.125
      vertex 9.4375 13 124.125
    endloop
  endfacet
  facet normal 0 0.762179 0.647366
    outer loop
      vertex 6.4375 13 124.125
      vertex 9.4375 69.6667 57.4082
      vertex 6.4375 69.6667 57.4082
    endloop
  endfacet
  facet normal 1 -0 0
    outer loop
      vertex 9.4375 3 103.9
      vertex 9.4375 13 93.9
      vertex 9.4375 13 103.9
    endloop
  endfacet
  facet normal 1 0 0
    outer loop
      vertex 9.4375 13 93.9
      vertex 9.4375 3 103.9
      vertex 9.4375 13 83.675
    endloop
  endfacet
  facet normal 1 0 0
    outer loop
      vertex 9.4375 13 83.675
      vertex 9.4375 3 103.9
      vertex 9.4375 13 79.675
    endloop
  endfacet
  facet normal 1 0 0
    outer loop
      vertex 9.4375 3 59.45
      vertex 9.4375 13 79.675
      vertex 9.4375 3 103.9
    endloop
  endfacet
  facet normal 1 0 0
    outer loop
      vertex 9.4375 13 79.675
      vertex 9.4375 3 59.45
      vertex 9.4375 13 69.45
    endloop
  endfacet
  facet normal 1 0 0
    outer loop
      vertex 9.4375 13 69.45
      vertex 9.4375 3 59.45
      vertex 9.4375 13 59.45
    endloop
  endfacet
  facet normal 1 0 0
    outer loop
      vertex 9.4375 95.5363 10
      vertex 9.4375 50.0196 47.0832
      vertex 9.4375 79.5363 10
    endloop
  endfacet
  facet normal 1 0 0
    outer loop
      vertex 9.4375 13 93.9
      vertex 9.4375 50.0196 47.0832
      vertex 9.4375 95.5363 10
    endloop
  endfacet
  facet normal 1 0 0
    outer loop
      vertex 9.4375 50.0196 47.0832
      vertex 9.4375 13 93.9
      vertex 9.4375 13 83.675
    endloop
  endfacet
  facet normal 1 -0 0
    outer loop
      vertex 9.4375 50.0196 45.0698
      vertex 9.4375 79.5363 10
      vertex 9.4375 50.0196 47.0832
    endloop
  endfacet
  facet normal 1 -0 0
    outer loop
      vertex 9.4375 13 69.45
      vertex 9.4375 50.0196 45.0698
      vertex 9.4375 13 79.675
    endloop
  endfacet
  facet normal 1 0 0
    outer loop
      vertex 9.4375 50.0196 45.0698
      vertex 9.4375 13 69.45
      vertex 9.4375 79.5363 10
    endloop
  endfacet
  facet normal 0 -0.666281 -0.7457
    outer loop
      vertex 6.4375 13 69.45
      vertex 9.4375 79.5363 10
      vertex 9.4375 13 69.45
    endloop
  endfacet
  facet normal -0 -0.666281 -0.7457
    outer loop
      vertex 9.4375 79.5363 10
      vertex 6.4375 13 69.45
      vertex 6.4375 79.5363 10
    endloop
  endfacet
  facet normal 0 0 -1
    outer loop
      vertex 6.4375 79.5363 10
      vertex 9.4375 95.5363 10
      vertex 9.4375 79.5363 10
    endloop
  endfacet
  facet normal -0 0 -1
    outer loop
      vertex 9.4375 95.5363 10
      vertex 6.4375 79.5363 10
      vertex 6.4375 95.5363 10
    endloop
  endfacet
  facet normal 0 0.712877 0.70129
    outer loop
      vertex 9.4375 95.5363 10
      vertex 6.4375 13 93.9
      vertex 9.4375 13 93.9
    endloop
  endfacet
  facet normal 0 0.712877 0.70129
    outer loop
      vertex 6.4375 13 93.9
      vertex 9.4375 95.5363 10
      vertex 6.4375 95.5363 10
    endloop
  endfacet
  facet normal -0 0 1
    outer loop
      vertex 6.4375 13 103.9
      vertex 9.4375 3 103.9
      vertex 9.4375 13 103.9
    endloop
  endfacet
  facet normal 0 0 1
    outer loop
      vertex 9.4375 3 103.9
      vertex 6.4375 13 103.9
      vertex 6.4375 3 103.9
    endloop
  endfacet
  facet normal 0 0 -1
    outer loop
      vertex 6.4375 3 59.45
      vertex 9.4375 13 59.45
      vertex 9.4375 3 59.45
    endloop
  endfacet
  facet normal -0 0 -1
    outer loop
      vertex 9.4375 13 59.45
      vertex 6.4375 3 59.45
      vertex 6.4375 13 59.45
    endloop
  endfacet
  facet normal 0 -0.702985 -0.711204
    outer loop
      vertex 6.4375 13 83.675
      vertex 9.4375 50.0196 47.0832
      vertex 9.4375 13 83.675
    endloop
  endfacet
  facet normal -0 -0.702985 -0.711204
    outer loop
      vertex 9.4375 50.0196 47.0832
      vertex 6.4375 13 83.675
      vertex 6.4375 50.0196 47.0832
    endloop
  endfacet
  facet normal 0 -1 0
    outer loop
      vertex 6.4375 50.0196 45.0698
      vertex 9.4375 50.0196 47.0832
      vertex 6.4375 50.0196 47.0832
    endloop
  endfacet
  facet normal 0 -1 -0
    outer loop
      vertex 9.4375 50.0196 47.0832
      vertex 6.4375 50.0196 45.0698
      vertex 9.4375 50.0196 45.0698
    endloop
  endfacet
  facet normal -0 0.682883 0.730528
    outer loop
      vertex 6.4375 50.0196 45.0698
      vertex 9.4375 13 79.675
      vertex 9.4375 50.0196 45.0698
    endloop
  endfacet
  facet normal 0 0.682883 0.730528
    outer loop
      vertex 9.4375 13 79.675
      vertex 6.4375 50.0196 45.0698
      vertex 6.4375 13 79.675
    endloop
  endfacet
  facet normal 1 -0 0
    outer loop
      vertex 9.4375 3 59.45
      vertex 9.4375 13 49.45
      vertex 9.4375 13 59.45
    endloop
  endfacet
  facet normal 1 0 0
    outer loop
      vertex 9.4375 13 49.45
      vertex 9.4375 3 59.45
      vertex 9.4375 13 39.225
    endloop
  endfacet
  facet normal 1 0 0
    outer loop
      vertex 9.4375 13 39.225
      vertex 9.4375 3 59.45
      vertex 9.4375 13 35.225
    endloop
  endfacet
  facet normal 1 0 0
    outer loop
      vertex 9.4375 3 15
      vertex 9.4375 13 35.225
      vertex 9.4375 3 59.45
    endloop
  endfacet
  facet normal 1 0 0
    outer loop
      vertex 9.4375 13 35.225
      vertex 9.4375 3 15
      vertex 9.4375 13 25
    endloop
  endfacet
  facet normal 1 0 0
    outer loop
      vertex 9.4375 13 25
      vertex 9.4375 3 15
      vertex 9.4375 13 15
    endloop
  endfacet
  facet normal 1 0 0
    outer loop
      vertex 9.4375 68.433 10
      vertex 9.4375 30.8793 27.7241
      vertex 9.4375 48.433 10
    endloop
  endfacet
  facet normal 1 0 0
    outer loop
      vertex 9.4375 13 49.45
      vertex 9.4375 30.8793 27.7241
      vertex 9.4375 68.433 10
    endloop
  endfacet
  facet normal 1 0 0
    outer loop
      vertex 9.4375 30.8793 27.7241
      vertex 9.4375 13 49.45
      vertex 9.4375 13 39.225
    endloop
  endfacet
  facet normal 1 -0 0
    outer loop
      vertex 9.4375 30.8793 25.2982
      vertex 9.4375 48.433 10
      vertex 9.4375 30.8793 27.7241
    endloop
  endfacet
  facet normal 1 0 0
    outer loop
      vertex 9.4375 13 25
      vertex 9.4375 30.8793 25.2982
      vertex 9.4375 13 35.225
    endloop
  endfacet
  facet normal 1 0 0
    outer loop
      vertex 9.4375 30.8793 25.2982
      vertex 9.4375 13 25
      vertex 9.4375 48.433 10
    endloop
  endfacet
  facet normal 0 -0.389841 -0.920882
    outer loop
      vertex 6.4375 13 25
      vertex 9.4375 48.433 10
      vertex 9.4375 13 25
    endloop
  endfacet
  facet normal -0 -0.389841 -0.920882
    outer loop
      vertex 9.4375 48.433 10
      vertex 6.4375 13 25
      vertex 6.4375 48.433 10
    endloop
  endfacet
  facet normal 0 0 -1
    outer loop
      vertex 6.4375 48.433 10
      vertex 9.4375 68.433 10
      vertex 9.4375 48.433 10
    endloop
  endfacet
  facet normal -0 0 -1
    outer loop
      vertex 9.4375 68.433 10
      vertex 6.4375 48.433 10
      vertex 6.4375 68.433 10
    endloop
  endfacet
  facet normal -0 0.579826 0.81474
    outer loop
      vertex 6.4375 68.433 10
      vertex 9.4375 13 49.45
      vertex 9.4375 68.433 10
    endloop
  endfacet
  facet normal 0 0.579826 0.81474
    outer loop
      vertex 9.4375 13 49.45
      vertex 6.4375 68.433 10
      vertex 6.4375 13 49.45
    endloop
  endfacet
  facet normal -0 0 1
    outer loop
      vertex 6.4375 13 59.45
      vertex 9.4375 3 59.45
      vertex 9.4375 13 59.45
    endloop
  endfacet
  facet normal 0 0 1
    outer loop
      vertex 9.4375 3 59.45
      vertex 6.4375 13 59.45
      vertex 6.4375 3 59.45
    endloop
  endfacet
  facet normal 0 0 -1
    outer loop
      vertex 6.4375 3 15
      vertex 9.4375 13 15
      vertex 9.4375 3 15
    endloop
  endfacet
  facet normal -0 0 -1
    outer loop
      vertex 9.4375 13 15
      vertex 6.4375 3 15
      vertex 6.4375 13 15
    endloop
  endfacet
  facet normal 0 -0.540993 -0.841027
    outer loop
      vertex 6.4375 13 39.225
      vertex 9.4375 30.8793 27.7241
      vertex 9.4375 13 39.225
    endloop
  endfacet
  facet normal -0 -0.540993 -0.841027
    outer loop
      vertex 9.4375 30.8793 27.7241
      vertex 6.4375 13 39.225
      vertex 6.4375 30.8793 27.7241
    endloop
  endfacet
  facet normal 0 -1 0
    outer loop
      vertex 6.4375 30.8793 25.2982
      vertex 9.4375 30.8793 27.7241
      vertex 6.4375 30.8793 27.7241
    endloop
  endfacet
  facet normal 0 -1 -0
    outer loop
      vertex 9.4375 30.8793 27.7241
      vertex 6.4375 30.8793 25.2982
      vertex 9.4375 30.8793 25.2982
    endloop
  endfacet
  facet normal -0 0.485413 0.874285
    outer loop
      vertex 6.4375 30.8793 25.2982
      vertex 9.4375 13 35.225
      vertex 9.4375 30.8793 25.2982
    endloop
  endfacet
  facet normal 0 0.485413 0.874285
    outer loop
      vertex 9.4375 13 35.225
      vertex 6.4375 30.8793 25.2982
      vertex 6.4375 13 35.225
    endloop
  endfacet
  facet normal -1 0 0
    outer loop
      vertex -9.4375 173 0
      vertex -9.4375 13 10
      vertex -9.4375 173 10
    endloop
  endfacet
  facet normal -1 0 0
    outer loop
      vertex -9.4375 0 -5
      vertex -9.4375 13 10
      vertex -9.4375 173 0
    endloop
  endfacet
  facet normal -1 0 0
    outer loop
      vertex -9.4375 0 15
      vertex -9.4375 13 10
      vertex -9.4375 0 -5
    endloop
  endfacet
  facet normal -1 0 0
    outer loop
      vertex -9.4375 13 10
      vertex -9.4375 0 15
      vertex -9.4375 13 15
    endloop
  endfacet
  facet normal 1 0 0
    outer loop
      vertex 9.4375 13 15
      vertex 9.4375 0 15
      vertex 9.4375 13 10
    endloop
  endfacet
  facet normal 1 -0 0
    outer loop
      vertex 9.4375 13 10
      vertex 9.4375 173 0
      vertex 9.4375 173 10
    endloop
  endfacet
  facet normal 1 0 0
    outer loop
      vertex 9.4375 13 10
      vertex 9.4375 0 -5
      vertex 9.4375 173 0
    endloop
  endfacet
  facet normal 1 0 0
    outer loop
      vertex 9.4375 0 -5
      vertex 9.4375 13 10
      vertex 9.4375 0 15
    endloop
  endfacet
  facet normal 0 1 -0
    outer loop
      vertex 9.4375 173 0
      vertex -9.4375 173 10
      vertex 9.4375 173 10
    endloop
  endfacet
  facet normal 0 1 0
    outer loop
      vertex -9.4375 173 10
      vertex 9.4375 173 0
      vertex -9.4375 173 0
    endloop
  endfacet
  facet normal -0 0 1
    outer loop
      vertex -9.4375 173 10
      vertex 9.4375 13 10
      vertex 9.4375 173 10
    endloop
  endfacet
  facet normal 0 0 1
    outer loop
      vertex 9.4375 13 10
      vertex -9.4375 173 10
      vertex -9.4375 13 10
    endloop
  endfacet
  facet normal 0 1 -0
    outer loop
      vertex 9.4375 13 10
      vertex -9.4375 13 15
      vertex 9.4375 13 15
    endloop
  endfacet
  facet normal 0 1 0
    outer loop
      vertex -9.4375 13 15
      vertex 9.4375 13 10
      vertex -9.4375 13 10
    endloop
  endfacet
  facet normal -0 0 1
    outer loop
      vertex -9.4375 13 15
      vertex 9.4375 0 15
      vertex 9.4375 13 15
    endloop
  endfacet
  facet normal 0 0 1
    outer loop
      vertex 9.4375 0 15
      vertex -9.4375 13 15
      vertex -9.4375 0 15
    endloop
  endfacet
  facet normal 0 -1 0
    outer loop
      vertex -9.4375 0 -5
      vertex 9.4375 0 15
      vertex -9.4375 0 15
    endloop
  endfacet
  facet normal 0 -1 -0
    outer loop
      vertex 9.4375 0 15
      vertex -9.4375 0 -5
      vertex 9.4375 0 -5
    endloop
  endfacet
  facet normal 0 0.0288897 -0.999583
    outer loop
      vertex -9.4375 0 -5
      vertex 9.4375 173 0
      vertex 9.4375 0 -5
    endloop
  endfacet
  facet normal 0 0.0288897 -0.999583
    outer loop
      vertex 9.4375 173 0
      vertex -9.4375 0 -5
      vertex -9.4375 173 0
    endloop
  endfacet
endsolid OpenSCAD_Model
